<svg width="93" height="89" viewBox="0 0 93 89" fill="none" xmlns="http://www.w3.org/2000/svg">
<path d="M92.2835 42.6465L84.3959 31.9422L84.4866 18.6444C84.4907 18.0544 84.3057 17.4785 83.9586 17.0013C83.6116 16.524 83.1208 16.1705 82.5583 15.9925L69.8813 11.9779L62.1495 1.15747C61.4435 0.168559 60.1759 -0.239228 59.0267 0.142993L46.4107 4.35431L33.7947 0.141905C32.6444 -0.240497 31.377 0.16729 30.6718 1.15638L22.9411 11.9757L10.2633 15.9925C9.70076 16.1702 9.21 16.5236 8.86297 17.0006C8.51594 17.4777 8.33088 18.0534 8.33494 18.6433L8.4256 31.9411L0.537856 42.6455C0.188448 43.1206 0 43.695 0 44.2848C0 44.8745 0.188448 45.4489 0.537856 45.9241L8.42542 56.6284L8.33476 69.9262C8.33067 70.5162 8.51569 71.0921 8.86271 71.5693C9.20973 72.0466 9.7005 72.4001 10.2631 72.5781L22.9398 76.5927L30.6716 87.4131C31.0152 87.894 31.504 88.252 32.066 88.4345C32.6281 88.6171 33.2339 88.6147 33.7945 88.4276L46.4105 84.2163L59.0265 88.4287C59.5871 88.6158 60.1929 88.6182 60.7549 88.4356C61.317 88.253 61.8057 87.895 62.1493 87.4142L69.8801 76.5949L82.5583 72.5783C83.1208 72.4005 83.6115 72.0472 83.9586 71.5701C84.3056 71.0931 84.4906 70.5174 84.4866 69.9274L84.3959 56.6286L92.2835 45.9242C92.6329 45.4493 92.8213 44.875 92.8213 44.2854C92.8213 43.6957 92.6329 43.1215 92.2835 42.6465ZM79.4022 54.0903C79.0488 54.5704 78.86 55.1518 78.8641 55.7479L78.9469 67.9264L67.3331 71.605C66.7628 71.7849 66.2666 72.1456 65.9197 72.6327L58.841 82.5414L47.2857 78.6839C46.7178 78.4939 46.1034 78.4939 45.5354 78.6839L33.9802 82.5414L26.9002 72.6316C26.5524 72.1452 26.0566 71.7843 25.4868 71.6028L13.8741 67.9253L13.9569 55.7468C13.961 55.1507 13.7722 54.5693 13.4188 54.0892L6.19338 44.2853L13.418 34.4805C13.7715 34.0004 13.9603 33.419 13.9562 32.8229L13.8733 20.6444L25.4872 16.9658C26.0575 16.7859 26.5536 16.4251 26.9006 15.9381L33.9793 6.02933L45.5345 9.8869C46.1025 10.0769 46.7169 10.0769 47.2848 9.8869L58.8401 6.02933L65.9201 15.9391C66.2678 16.4256 66.7636 16.7865 67.3334 16.968L78.9462 20.6455L78.8633 32.8239C78.8593 33.4201 79.048 34.0015 79.4015 34.4816L86.6283 44.2853L79.4022 54.0903Z" fill="white"/>
<path d="M46.5744 22.8613C34.5875 22.8613 24.998 32.4508 24.998 44.4377C24.998 56.4245 34.5875 66.0141 46.5744 66.0141C58.5613 66.0141 68.1508 56.4245 68.1508 44.4377C68.1508 32.4508 58.5613 22.8613 46.5744 22.8613ZM46.5744 61.2193C37.2245 61.2193 29.7928 53.7874 29.7928 44.4377C29.7928 35.088 37.2247 27.6561 46.5744 27.6561C55.9241 27.6561 63.356 35.088 63.356 44.4377C63.356 53.7874 55.9242 61.2193 46.5744 61.2193Z" fill="white"/>
<path d="M54.1814 47.9685L54.1814 47.9683H54.1715H44.9149V35.5162C44.9149 35.0397 44.7275 34.5822 44.3929 34.2443C44.0582 33.9064 43.6036 33.7159 43.129 33.7156L43.1285 33.7156C42.654 33.7161 42.1997 33.9067 41.8653 34.2446C41.5309 34.5825 41.3436 35.0398 41.3436 35.5162V51.2678V51.5678H41.6436H54.1715V51.5679L54.1814 51.5676C54.6458 51.5522 55.0855 51.3552 55.4077 51.0192C55.7299 50.6832 55.9096 50.2345 55.9096 49.7681C55.9096 49.3016 55.7299 48.8529 55.4077 48.5169C55.0855 48.1809 54.6458 47.9839 54.1814 47.9685Z" fill="white" stroke="#4590DD" stroke-width="0.6"/>
</svg>
