<svg width="93" height="89" viewBox="0 0 93 89" fill="none" xmlns="http://www.w3.org/2000/svg">
<path d="M92.2835 42.6465L84.3959 31.9422L84.4866 18.6444C84.4907 18.0544 84.3057 17.4785 83.9586 17.0013C83.6116 16.524 83.1208 16.1705 82.5583 15.9925L69.8813 11.9779L62.1495 1.15747C61.4435 0.168559 60.1759 -0.239228 59.0267 0.142993L46.4107 4.35431L33.7947 0.141905C32.6444 -0.240497 31.377 0.16729 30.6718 1.15638L22.9411 11.9757L10.2633 15.9925C9.70076 16.1702 9.21 16.5236 8.86297 17.0006C8.51594 17.4777 8.33088 18.0534 8.33494 18.6433L8.4256 31.9411L0.537856 42.6455C0.188448 43.1206 0 43.695 0 44.2848C0 44.8745 0.188448 45.4489 0.537856 45.9241L8.42542 56.6284L8.33476 69.9262C8.33067 70.5162 8.51569 71.0921 8.86271 71.5693C9.20973 72.0466 9.7005 72.4001 10.2631 72.5781L22.9398 76.5927L30.6716 87.4131C31.0152 87.894 31.504 88.252 32.066 88.4345C32.6281 88.6171 33.2339 88.6147 33.7945 88.4276L46.4105 84.2163L59.0265 88.4287C59.5871 88.6158 60.1929 88.6182 60.7549 88.4356C61.317 88.253 61.8057 87.895 62.1493 87.4142L69.8801 76.5949L82.5583 72.5783C83.1208 72.4005 83.6115 72.0472 83.9586 71.5701C84.3056 71.0931 84.4906 70.5174 84.4866 69.9274L84.3959 56.6286L92.2835 45.9242C92.6329 45.4493 92.8213 44.875 92.8213 44.2854C92.8213 43.6957 92.6329 43.1215 92.2835 42.6465ZM79.4022 54.0903C79.0488 54.5704 78.86 55.1518 78.8641 55.7479L78.9469 67.9264L67.3331 71.605C66.7628 71.7849 66.2666 72.1456 65.9197 72.6327L58.841 82.5414L47.2857 78.6839C46.7178 78.4939 46.1034 78.4939 45.5354 78.6839L33.9802 82.5414L26.9002 72.6316C26.5524 72.1452 26.0566 71.7843 25.4868 71.6028L13.8741 67.9253L13.9569 55.7468C13.961 55.1507 13.7722 54.5693 13.4188 54.0892L6.19338 44.2853L13.418 34.4805C13.7715 34.0004 13.9603 33.419 13.9562 32.8229L13.8733 20.6444L25.4872 16.9658C26.0575 16.7859 26.5536 16.4251 26.9006 15.9381L33.9793 6.02933L45.5345 9.8869C46.1025 10.0769 46.7169 10.0769 47.2848 9.8869L58.8401 6.02933L65.9201 15.9391C66.2678 16.4256 66.7636 16.7865 67.3334 16.968L78.9462 20.6455L78.8633 32.8239C78.8593 33.4201 79.048 34.0015 79.4015 34.4816L86.6283 44.2853L79.4022 54.0903Z" fill="white"/>
<path d="M32.5411 50.2913L32.5409 50.2913C32.3099 50.303 32.0788 50.2688 31.8611 50.1906C31.6434 50.1123 31.4433 49.9917 31.2726 49.8356C31.1019 49.6795 30.9638 49.491 30.8664 49.2812C30.7692 49.0716 30.7145 48.8448 30.7054 48.614C30.634 46.346 31.0325 44.0878 31.8758 41.9812C32.7193 39.8744 33.9894 37.9648 35.6063 36.3725L35.6068 36.372C39.404 32.6142 43.691 31.6243 48.58 30.8061L48.58 30.8062L48.5842 30.8054C51.9381 30.185 55.0927 28.7642 57.78 26.6637C57.9943 26.5112 58.2403 26.409 58.4996 26.3647C58.7607 26.3202 59.0284 26.3356 59.2826 26.4096C59.5368 26.4837 59.7709 26.6146 59.9671 26.7924L60.1341 26.6081L59.9671 26.7924C60.1626 26.9694 60.3154 27.1883 60.4143 27.4328C61.6788 30.8405 62.2564 34.4648 62.1137 38.0967C61.9709 41.7298 61.1103 45.2987 59.5814 48.5976L59.5813 48.5978C54.9774 58.5564 45.6984 62.7512 35.3377 61.6418L35.3366 61.6417C35.0731 61.6147 34.8192 61.5281 34.5941 61.3885C34.369 61.249 34.1785 61.0601 34.0371 60.8362C33.8957 60.6123 33.807 60.3591 33.7777 60.0959C33.7487 59.835 33.7788 59.5709 33.8658 59.3232C36.9122 52.1124 41.9456 45.9161 48.3791 41.4567C48.755 41.2087 49.2122 41.1154 49.6552 41.1962C50.0992 41.2772 50.4946 41.5267 50.7588 41.8925C51.023 42.2583 51.1355 42.7121 51.0728 43.159C51.0103 43.6041 50.7788 44.0079 50.4265 44.2867C45.41 47.8808 41.2846 52.5775 38.3677 58.0157L38.1682 58.3876L38.5902 58.3839C41.047 58.3625 43.4857 57.9606 45.8195 57.1925L45.8202 57.1922C50.827 55.5267 54.5205 51.5502 56.6328 46.7452C58.7447 41.941 59.2858 36.2887 57.9721 31.236L57.8857 30.9037L57.596 31.0879C55.0383 32.7139 52.1831 33.8157 49.1961 34.3294C44.82 35.0687 41.191 35.8763 38.113 38.9333C36.8326 40.1791 35.8241 41.6766 35.151 43.3313C34.4781 44.9855 34.1549 46.761 34.2018 48.5462C34.2016 48.994 34.0296 49.4247 33.7211 49.7494C33.4119 50.0748 32.9894 50.2688 32.5411 50.2913Z" fill="white" stroke="white" stroke-width="0.5"/>
</svg>
