<svg width="41" height="564" viewBox="0 0 41 564" fill="none" xmlns="http://www.w3.org/2000/svg">
<line x1="31.5" y1="26" x2="31.5" y2="130" stroke="#656565"/>
<line x1="31.5" y1="162" x2="31.5" y2="266" stroke="#656565"/>
<line x1="31.5" y1="298" x2="31.5" y2="402" stroke="#656565"/>
<line x1="31.5" y1="434" x2="31.5" y2="538" stroke="#656565"/>
<circle cx="31.0002" cy="9.99922" r="6.3" fill="#2F2F2F"/>
<circle cx="31" cy="10" r="9.5" stroke="#656565"/>
<circle cx="31.0002" cy="145.999" r="6.3" fill="#2F2F2F"/>
<circle cx="31" cy="146" r="9.5" stroke="#656565"/>
<circle cx="31.0002" cy="281.999" r="6.3" fill="#2F2F2F"/>
<circle cx="31" cy="282" r="9.5" stroke="#656565"/>
<circle cx="31.0002" cy="417.999" r="6.3" fill="#2F2F2F"/>
<circle cx="31" cy="418" r="9.5" stroke="#656565"/>
<circle cx="31.0002" cy="553.999" r="6.3" fill="#2F2F2F"/>
<circle cx="31" cy="554" r="9.5" stroke="#656565"/>
<path d="M12.139 5.27V13.502H15.009V15H6.37098V13.502H10.375V7.062L6.69298 8.63V6.978L10.361 5.27H12.139Z" fill="#656565"/>
<path d="M7.88266 149.516H14.9947V151H6.14666V150.314C6.14666 149.586 6.31466 148.97 6.65066 148.466C6.98666 147.953 7.53732 147.5 8.30266 147.108L11.9987 145.204C12.4093 144.989 12.694 144.784 12.8527 144.588C13.0207 144.383 13.1047 144.14 13.1047 143.86C13.1047 143.44 12.8807 143.118 12.4327 142.894C11.994 142.67 11.378 142.558 10.5847 142.558C9.67932 142.558 9.01666 142.698 8.59666 142.978C8.17666 143.249 7.95732 143.706 7.93866 144.35H6.32866C6.35666 143.221 6.72532 142.39 7.43466 141.858C8.14399 141.326 9.19399 141.06 10.5847 141.06C11.9473 141.06 13.002 141.303 13.7487 141.788C14.4953 142.273 14.8687 142.959 14.8687 143.846C14.8687 144.378 14.7287 144.835 14.4487 145.218C14.1687 145.601 13.73 145.946 13.1327 146.254L9.11466 148.326C8.67599 148.55 8.37266 148.741 8.20466 148.9C8.03666 149.059 7.92932 149.264 7.88266 149.516Z" fill="#656565"/>
<path d="M12.9718 281.792V282.03C13.5878 282.217 14.0638 282.52 14.3998 282.94C14.7358 283.351 14.9038 283.85 14.9038 284.438C14.9038 285.343 14.5212 286.034 13.7558 286.51C12.9998 286.977 11.8845 287.21 10.4098 287.21C7.56315 287.21 6.06982 286.183 5.92982 284.13H7.60982C7.67515 284.69 7.93182 285.096 8.37982 285.348C8.83715 285.6 9.52782 285.726 10.4518 285.726C11.3945 285.726 12.0758 285.609 12.4958 285.376C12.9252 285.133 13.1398 284.737 13.1398 284.186C13.1398 283.178 12.2158 282.674 10.3678 282.674H8.85582V281.204H10.3678C12.0665 281.204 12.9158 280.733 12.9158 279.79C12.9158 279.351 12.7198 279.034 12.3278 278.838C11.9358 278.642 11.3152 278.544 10.4658 278.544C9.62582 278.544 8.99115 278.67 8.56182 278.922C8.14182 279.174 7.90382 279.571 7.84782 280.112H6.16782C6.35449 278.077 7.79182 277.06 10.4798 277.06C11.8332 277.06 12.8645 277.279 13.5738 277.718C14.2832 278.147 14.6378 278.782 14.6378 279.622C14.6378 280.621 14.0825 281.344 12.9718 281.792Z" fill="#656565"/>
<path d="M12.7832 419.402H14.6452V420.886H12.7832V423H11.0472V420.886H4.83116V419.458C6.22183 417.423 6.99183 415.361 7.14116 413.27H8.86316C8.69516 415.333 8.00916 417.377 6.80516 419.402H11.0472V415.972H12.7832V419.402Z" fill="#656565"/>
<path d="M10.7107 552.504C13.5947 552.504 15.0367 553.638 15.0367 555.906C15.0367 557.017 14.6587 557.847 13.9027 558.398C13.156 558.939 12.0127 559.21 10.4727 559.21C7.62599 559.21 6.15132 558.123 6.04866 555.948H7.74266C7.77999 556.583 8.01332 557.04 8.44266 557.32C8.87199 557.591 9.55799 557.726 10.5007 557.726C11.49 557.726 12.204 557.586 12.6427 557.306C13.0813 557.017 13.3007 556.55 13.3007 555.906C13.3007 555.234 13.0813 554.749 12.6427 554.45C12.2133 554.142 11.5133 553.988 10.5427 553.988C9.60932 553.988 8.81132 554.147 8.14866 554.464L6.52466 554.31L7.02866 549.27H14.3087V550.768H8.58266L8.37266 552.924C9.10066 552.644 9.87999 552.504 10.7107 552.504Z" fill="#656565"/>
</svg>
