<svg width="158" height="144" viewBox="0 0 158 144" fill="none" xmlns="http://www.w3.org/2000/svg">
<rect width="158" height="144" rx="20" fill="#4590DD"/>
<path d="M61.68 91.64C57.1467 91.64 53.2267 90.9733 49.92 89.64C46.6133 88.3067 44.0533 86.4133 42.24 83.96C40.4267 81.4533 39.52 78.52 39.52 75.16C39.52 71.8533 40.3733 69.0533 42.08 66.76C43.84 64.4133 46.3733 62.6533 49.68 61.48C52.9867 60.2533 56.9867 59.64 61.68 59.64C66.3733 59.64 70.3733 60.2533 73.68 61.48C77.04 62.6533 79.6 64.4133 81.36 66.76C83.12 69.1067 84 71.9067 84 75.16C84 78.52 83.0933 81.4533 81.28 83.96C79.4667 86.4133 76.88 88.3067 73.52 89.64C70.16 90.9733 66.2133 91.64 61.68 91.64ZM61.68 85.16C66.16 85.16 69.6533 84.2533 72.16 82.44C74.72 80.5733 76 78.0667 76 74.92C76 71.8267 74.72 69.4 72.16 67.64C69.6533 65.8267 66.16 64.92 61.68 64.92C57.2533 64.92 53.7867 65.8267 51.28 67.64C48.7733 69.4 47.52 71.8267 47.52 74.92C47.52 78.0667 48.7733 80.5733 51.28 82.44C53.7867 84.2533 57.2533 85.16 61.68 85.16ZM61.68 63.96C57.4133 63.96 53.7867 63.4 50.8 62.28C47.8133 61.1067 45.52 59.4533 43.92 57.32C42.32 55.1333 41.52 52.5467 41.52 49.56C41.52 46.4133 42.3467 43.72 44 41.48C45.7067 39.1867 48.08 37.4267 51.12 36.2C54.16 34.9733 57.68 34.36 61.68 34.36C65.7333 34.36 69.28 34.9733 72.32 36.2C75.36 37.4267 77.7333 39.1867 79.44 41.48C81.1467 43.72 82 46.4133 82 49.56C82 52.5467 81.2 55.1333 79.6 57.32C78 59.4533 75.68 61.1067 72.64 62.28C69.6 63.4 65.9467 63.96 61.68 63.96ZM61.68 58.84C65.5733 58.84 68.6133 58.04 70.8 56.44C73.04 54.84 74.16 52.6533 74.16 49.88C74.16 47.0533 73.0133 44.84 70.72 43.24C68.4267 41.64 65.4133 40.84 61.68 40.84C57.9467 40.84 54.96 41.64 52.72 43.24C50.5333 44.84 49.44 47.0533 49.44 49.88C49.44 52.6533 50.5067 54.84 52.64 56.44C54.8267 58.04 57.84 58.84 61.68 58.84Z" fill="white"/>
<path d="M101.94 75.14V48.86H106.98V75.14H101.94ZM91.02 64.4V59.66H117.9V64.4H91.02Z" fill="white"/>
<path d="M42.4766 104.923H44.2464L40.4376 111.695V113.836H38.8345V111.72L35 104.923H36.7826L39.4757 109.809H39.7835L42.4766 104.923Z" fill="white"/>
<path d="M51.9254 110.489V110.912H45.5645C45.6244 111.596 45.8424 112.075 46.2186 112.349C46.5948 112.614 47.2189 112.746 48.0909 112.746C49.4332 112.746 50.1728 112.434 50.3096 111.81H51.81C51.7331 112.537 51.374 113.088 50.7328 113.464C50.0915 113.841 49.2024 114.029 48.0653 114.029C46.6802 114.029 45.6628 113.738 45.0131 113.157C44.3633 112.575 44.0384 111.669 44.0384 110.438C44.0384 109.224 44.3548 108.335 44.9874 107.77C45.6286 107.198 46.6375 106.911 48.014 106.911C49.3905 106.911 50.3865 107.189 51.0021 107.745C51.6177 108.3 51.9254 109.215 51.9254 110.489ZM45.5902 109.694H50.3096C50.2754 109.164 50.0787 108.784 49.7196 108.553C49.3606 108.322 48.792 108.206 48.014 108.206C47.236 108.206 46.6589 108.322 46.2827 108.553C45.9151 108.775 45.6842 109.155 45.5902 109.694Z" fill="white"/>
<path d="M56.6071 106.911C57.7698 106.911 58.6248 107.129 59.1719 107.565C59.7191 107.993 59.9927 108.664 59.9927 109.579V113.836H58.4025V112.759C57.9151 113.605 57.0773 114.029 55.8889 114.029C53.9481 114.029 52.9777 113.336 52.9777 111.951C52.9777 110.481 54.0849 109.745 56.2993 109.745C57.0944 109.745 57.7955 109.835 58.4025 110.015V109.579C58.4025 109.1 58.2571 108.754 57.9664 108.54C57.6843 108.326 57.2355 108.219 56.6199 108.219C56.03 108.219 55.5939 108.279 55.3118 108.399C55.0382 108.518 54.8843 108.728 54.8501 109.027H53.3625C53.4565 107.616 54.538 106.911 56.6071 106.911ZM56.2608 112.798C56.8764 112.798 57.3722 112.682 57.7484 112.451C58.1246 112.22 58.3426 111.904 58.4025 111.502V111.182C57.8211 111.011 57.1542 110.925 56.4019 110.925C55.1707 110.925 54.5551 111.25 54.5551 111.9C54.5551 112.498 55.1237 112.798 56.2608 112.798Z" fill="white"/>
<path d="M63.3446 107.116V108.771C63.8918 107.531 64.845 106.911 66.2044 106.911V108.514C65.2383 108.514 64.533 108.711 64.0884 109.104C63.6524 109.497 63.4044 110.169 63.3446 111.118V113.836H61.7544V107.116H63.3446Z" fill="white"/>
<path d="M70.4271 114.029C69.3156 114.029 68.4906 113.845 67.952 113.477C67.4219 113.101 67.1483 112.524 67.1312 111.746H68.5932C68.6188 112.088 68.7856 112.34 69.0933 112.503C69.4011 112.665 69.8714 112.746 70.504 112.746C71.6155 112.746 72.1712 112.451 72.1712 111.861C72.1712 111.665 72.1242 111.524 72.0301 111.438C71.9361 111.344 71.7565 111.276 71.4915 111.233L69.1959 110.81C67.9904 110.605 67.3877 110.019 67.3877 109.053C67.3877 108.318 67.6356 107.779 68.1315 107.437C68.6359 107.086 69.4268 106.911 70.504 106.911C72.4704 106.911 73.4921 107.625 73.5691 109.053H72.0943C72.0601 108.745 71.9147 108.527 71.6582 108.399C71.4103 108.262 71.0127 108.194 70.4656 108.194C69.4567 108.194 68.9523 108.454 68.9523 108.976C68.9523 109.275 69.1874 109.463 69.6576 109.54L71.8249 109.938C73.1074 110.169 73.7486 110.784 73.7486 111.784C73.7486 112.554 73.4793 113.122 72.9407 113.49C72.4106 113.849 71.5727 114.029 70.4271 114.029Z" fill="white"/>
<path d="M78.8193 104.911C78.8193 104.56 78.8877 104.321 79.0245 104.192C79.1698 104.064 79.4348 104 79.8196 104C80.2043 104 80.4651 104.064 80.6019 104.192C80.7472 104.321 80.8199 104.56 80.8199 104.911C80.8199 105.253 80.7472 105.488 80.6019 105.616C80.4651 105.736 80.2043 105.795 79.8196 105.795C79.4348 105.795 79.1698 105.736 79.0245 105.616C78.8877 105.488 78.8193 105.253 78.8193 104.911ZM80.6275 113.836H79.0373V107.104H80.6275V113.836Z" fill="white"/>
<path d="M86.6251 106.911C87.6083 106.911 88.318 107.125 88.754 107.552C89.1986 107.971 89.4209 108.655 89.4209 109.604V113.836H87.8306V109.643C87.8306 108.677 87.2407 108.194 86.0609 108.194C84.6929 108.194 84.009 108.925 84.009 110.387V113.836H82.4187V107.104H84.009V108.283C84.5134 107.369 85.3854 106.911 86.6251 106.911Z" fill="white"/>
<path d="M99.1728 114.029C97.7536 114.029 96.7063 113.755 96.0308 113.208C95.3554 112.661 95.0177 111.81 95.0177 110.656V104.923H96.6336V110.656C96.6336 111.365 96.8302 111.878 97.2235 112.195C97.6168 112.503 98.2666 112.656 99.1728 112.656C100.079 112.656 100.733 112.498 101.135 112.182C101.545 111.866 101.751 111.357 101.751 110.656V104.923H103.366V110.656C103.366 111.81 103.024 112.661 102.34 113.208C101.657 113.755 100.601 114.029 99.1728 114.029Z" fill="white"/>
<path d="M114.286 113.836H112.632L111.837 111.579H106.707L105.912 113.836H104.27L107.4 104.923H111.17L114.286 113.836ZM108.567 106.308L107.194 110.207H111.362L109.99 106.308H108.567Z" fill="white"/>
<path d="M122.818 113.836H115.547V104.923H122.728V106.296H117.163V108.527H122.292V109.899H117.163V112.477H122.818V113.836Z" fill="white"/>
</svg>
