<svg width="35" height="32" viewBox="0 0 35 32" fill="none" xmlns="http://www.w3.org/2000/svg">
<g filter="url(#filter0_d_27_11)">
<rect x="2" width="31.6105" height="28.8096" rx="5.10169" fill="#4590DD"/>
<path d="M12.4417 17.3048C11.535 17.3048 10.751 17.1714 10.0897 16.9048C9.42833 16.6381 8.91633 16.2594 8.55366 15.7688C8.191 15.2674 8.00966 14.6808 8.00966 14.0088C8.00966 13.3474 8.18033 12.7874 8.52166 12.3288C8.87366 11.8594 9.38033 11.5074 10.0417 11.2728C10.703 11.0274 11.503 10.9048 12.4417 10.9048C13.3803 10.9048 14.1803 11.0274 14.8417 11.2728C15.5137 11.5074 16.0257 11.8594 16.3777 12.3288C16.7297 12.7981 16.9057 13.3581 16.9057 14.0088C16.9057 14.6808 16.7243 15.2674 16.3617 15.7688C15.999 16.2594 15.4817 16.6381 14.8097 16.9048C14.1377 17.1714 13.3483 17.3048 12.4417 17.3048ZM12.4417 16.0088C13.3377 16.0088 14.0363 15.8274 14.5377 15.4648C15.0497 15.0914 15.3057 14.5901 15.3057 13.9608C15.3057 13.3421 15.0497 12.8568 14.5377 12.5048C14.0363 12.1421 13.3377 11.9608 12.4417 11.9608C11.5563 11.9608 10.863 12.1421 10.3617 12.5048C9.86033 12.8568 9.60966 13.3421 9.60966 13.9608C9.60966 14.5901 9.86033 15.0914 10.3617 15.4648C10.863 15.8274 11.5563 16.0088 12.4417 16.0088ZM12.4417 11.7688C11.5883 11.7688 10.863 11.6568 10.2657 11.4328C9.66833 11.1981 9.20966 10.8674 8.88966 10.4408C8.56966 10.0034 8.40966 9.48609 8.40966 8.88876C8.40966 8.25942 8.575 7.72076 8.90566 7.27276C9.247 6.81409 9.72166 6.46209 10.3297 6.21676C10.9377 5.97142 11.6417 5.84876 12.4417 5.84876C13.2523 5.84876 13.9617 5.97142 14.5697 6.21676C15.1777 6.46209 15.6523 6.81409 15.9937 7.27276C16.335 7.72076 16.5057 8.25942 16.5057 8.88876C16.5057 9.48609 16.3457 10.0034 16.0257 10.4408C15.7057 10.8674 15.2417 11.1981 14.6337 11.4328C14.0257 11.6568 13.295 11.7688 12.4417 11.7688ZM12.4417 10.7448C13.2203 10.7448 13.8283 10.5848 14.2657 10.2648C14.7137 9.94476 14.9377 9.50742 14.9377 8.95276C14.9377 8.38742 14.7083 7.94476 14.2497 7.62476C13.791 7.30476 13.1883 7.14476 12.4417 7.14476C11.695 7.14476 11.0977 7.30476 10.6497 7.62476C10.2123 7.94476 9.99366 8.38742 9.99366 8.95276C9.99366 9.50742 10.207 9.94476 10.6337 10.2648C11.071 10.5848 11.6737 10.7448 12.4417 10.7448Z" fill="white"/>
<path d="M23.1764 15.7907V8.78272H24.5204V15.7907H23.1764ZM20.2644 12.9267V11.6627H27.4324V12.9267H20.2644Z" fill="white"/>
<path d="M6.74687 21.4131H7.28404L6.12796 23.4683V24.1184H5.6414V23.4761L4.47754 21.4131H5.0186L5.83603 22.8961H5.92945L6.74687 21.4131Z" fill="white"/>
<path d="M9.6148 23.1024V23.2309H7.68412C7.70228 23.4385 7.76846 23.5838 7.88264 23.6668C7.99682 23.7473 8.18625 23.7875 8.45094 23.7875C8.85836 23.7875 9.08283 23.6928 9.12435 23.5034H9.57977C9.55642 23.7239 9.44743 23.8913 9.2528 24.0055C9.05818 24.1197 8.78829 24.1768 8.44316 24.1768C8.02277 24.1768 7.71396 24.0885 7.51674 23.9121C7.31952 23.7356 7.22091 23.4605 7.22091 23.0869C7.22091 22.7184 7.31692 22.4485 7.50896 22.2772C7.70358 22.1033 8.00979 22.0164 8.42759 22.0164C8.84538 22.0164 9.1477 22.1008 9.33454 22.2694C9.52138 22.4381 9.6148 22.7158 9.6148 23.1024ZM7.6919 22.8611H9.12435C9.11397 22.7002 9.05428 22.5847 8.94529 22.5147C8.8363 22.4446 8.66373 22.4096 8.42759 22.4096C8.19144 22.4096 8.01628 22.4446 7.9021 22.5147C7.79051 22.5821 7.72045 22.6976 7.6919 22.8611Z" fill="white"/>
<path d="M11.0358 22.0164C11.3887 22.0164 11.6482 22.0826 11.8143 22.2149C11.9804 22.3447 12.0634 22.5484 12.0634 22.8261V24.1184H11.5807V23.7914C11.4328 24.0483 11.1785 24.1768 10.8178 24.1768C10.2287 24.1768 9.9342 23.9666 9.9342 23.5462C9.9342 23.0998 10.2703 22.8767 10.9424 22.8767C11.1837 22.8767 11.3965 22.9039 11.5807 22.9584V22.8261C11.5807 22.6807 11.5366 22.5756 11.4484 22.5108C11.3628 22.4459 11.2265 22.4134 11.0397 22.4134C10.8606 22.4134 10.7283 22.4316 10.6426 22.4679C10.5596 22.5043 10.5129 22.5679 10.5025 22.6587H10.051C10.0795 22.2305 10.4078 22.0164 11.0358 22.0164ZM10.9307 23.8031C11.1175 23.8031 11.268 23.768 11.3822 23.698C11.4964 23.6279 11.5626 23.5319 11.5807 23.4099V23.3126C11.4043 23.2607 11.2019 23.2348 10.9735 23.2348C10.5998 23.2348 10.413 23.3334 10.413 23.5306C10.413 23.7123 10.5856 23.8031 10.9307 23.8031Z" fill="white"/>
<path d="M13.0808 22.0787V22.5808C13.2469 22.2046 13.5362 22.0164 13.9488 22.0164V22.503C13.6556 22.503 13.4415 22.5627 13.3065 22.682C13.1742 22.8014 13.0989 23.0051 13.0808 23.2932V24.1184H12.5981V22.0787H13.0808Z" fill="white"/>
<path d="M15.2305 24.1768C14.8931 24.1768 14.6427 24.121 14.4792 24.0094C14.3183 23.8952 14.2353 23.72 14.2301 23.4839H14.6739C14.6816 23.5877 14.7322 23.6642 14.8257 23.7135C14.9191 23.7629 15.0618 23.7875 15.2538 23.7875C15.5912 23.7875 15.7599 23.698 15.7599 23.5189C15.7599 23.4592 15.7456 23.4164 15.717 23.3905C15.6885 23.3619 15.634 23.3412 15.5536 23.3282L14.8568 23.1997C14.4909 23.1375 14.308 22.9597 14.308 22.6665C14.308 22.4433 14.3832 22.2798 14.5337 22.176C14.6868 22.0696 14.9269 22.0164 15.2538 22.0164C15.8507 22.0164 16.1608 22.2331 16.1841 22.6665H15.7365C15.7261 22.573 15.682 22.5069 15.6042 22.4679C15.5289 22.4264 15.4082 22.4057 15.2422 22.4057C14.936 22.4057 14.7828 22.4848 14.7828 22.6431C14.7828 22.7339 14.8542 22.791 14.9969 22.8144L15.6548 22.935C16.044 23.0051 16.2386 23.192 16.2386 23.4956C16.2386 23.7291 16.1569 23.9017 15.9934 24.0133C15.8325 24.1223 15.5782 24.1768 15.2305 24.1768Z" fill="white"/>
<path d="M17.7777 21.4092C17.7777 21.3028 17.7985 21.2301 17.84 21.1912C17.8841 21.1523 17.9646 21.1328 18.0813 21.1328C18.1981 21.1328 18.2772 21.1523 18.3188 21.1912C18.3629 21.2301 18.3849 21.3028 18.3849 21.4092C18.3849 21.513 18.3629 21.5843 18.3188 21.6233C18.2772 21.6596 18.1981 21.6778 18.0813 21.6778C17.9646 21.6778 17.8841 21.6596 17.84 21.6233C17.7985 21.5843 17.7777 21.513 17.7777 21.4092ZM18.3266 24.1184H17.8439V22.0748H18.3266V24.1184Z" fill="white"/>
<path d="M20.147 22.0164C20.4454 22.0164 20.6608 22.0813 20.7931 22.211C20.9281 22.3382 20.9955 22.5458 20.9955 22.8338V24.1184H20.5129V22.8455C20.5129 22.5523 20.3338 22.4057 19.9757 22.4057C19.5605 22.4057 19.3529 22.6275 19.3529 23.0713V24.1184H18.8702V22.0748H19.3529V22.4329C19.506 22.1552 19.7707 22.0164 20.147 22.0164Z" fill="white"/>
<path d="M23.9555 24.1768C23.5247 24.1768 23.2068 24.0937 23.0018 23.9276C22.7968 23.7616 22.6943 23.5034 22.6943 23.153V21.4131H23.1848V23.153C23.1848 23.3684 23.2445 23.5241 23.3638 23.6201C23.4832 23.7135 23.6804 23.7603 23.9555 23.7603C24.2306 23.7603 24.4291 23.7123 24.551 23.6162C24.6756 23.5202 24.7379 23.3658 24.7379 23.153V21.4131H25.2283V23.153C25.2283 23.5034 25.1245 23.7616 24.9169 23.9276C24.7093 24.0937 24.3889 24.1768 23.9555 24.1768Z" fill="white"/>
<path d="M28.5428 24.1184H28.0406L27.7993 23.4333H26.2423L26.0009 24.1184H25.5027L26.4525 21.4131H27.5969L28.5428 24.1184ZM26.8067 21.8335L26.3902 23.0168H27.6553L27.2388 21.8335H26.8067Z" fill="white"/>
<path d="M31.1324 24.1184H28.9253V21.4131H31.1052V21.8296H29.4158V22.5069H30.9728V22.9234H29.4158V23.7058H31.1324V24.1184Z" fill="white"/>
</g>
<defs>
<filter id="filter0_d_27_11" x="0.708861" y="0" width="34.1926" height="31.3918" filterUnits="userSpaceOnUse" color-interpolation-filters="sRGB">
<feFlood flood-opacity="0" result="BackgroundImageFix"/>
<feColorMatrix in="SourceAlpha" type="matrix" values="0 0 0 0 0 0 0 0 0 0 0 0 0 0 0 0 0 0 127 0" result="hardAlpha"/>
<feOffset dy="1.29114"/>
<feGaussianBlur stdDeviation="0.64557"/>
<feComposite in2="hardAlpha" operator="out"/>
<feColorMatrix type="matrix" values="0 0 0 0 0 0 0 0 0 0 0 0 0 0 0 0 0 0 0.25 0"/>
<feBlend mode="normal" in2="BackgroundImageFix" result="effect1_dropShadow_27_11"/>
<feBlend mode="normal" in="SourceGraphic" in2="effect1_dropShadow_27_11" result="shape"/>
</filter>
</defs>
</svg>
