<svg width="40" height="40" viewBox="0 0 40 40" fill="none" xmlns="http://www.w3.org/2000/svg">
<path d="M2.56363 2.72913C-0.515946 5.9279 0.114339 9.32589 0.114339 19.6488C0.114339 28.2214 -1.38136 36.8151 6.44658 38.8382C8.89097 39.4669 30.5492 39.4669 32.9904 38.835C36.2496 37.994 38.9013 35.3504 39.2638 30.7409C39.3144 30.0975 39.3144 9.21159 39.2622 8.55518C38.8768 3.64516 35.8544 0.815413 31.8719 0.242278C30.9591 0.110016 30.7762 0.0708278 26.0932 0.0626635C9.48206 0.0708278 5.84078 -0.668859 2.56363 2.72913Z" fill="url(#paint0_linear_125_730)"/>
<path d="M19.7058 5.18584C13.7769 5.18584 8.14676 4.65843 5.99628 10.1775C5.10801 12.457 5.237 15.4174 5.237 19.6563C5.237 23.3759 5.1178 26.8719 5.99628 29.1334C8.14186 34.6557 13.8177 34.1267 19.7025 34.1267C25.38 34.1267 31.2338 34.7178 33.4104 29.1334C34.3003 26.8311 34.1697 23.9148 34.1697 19.6563C34.1697 14.0033 34.4816 10.3538 31.74 7.6139C28.9641 4.83804 25.2102 5.18584 19.6993 5.18584H19.7058ZM18.4093 7.79352C30.7766 7.77393 32.3507 6.39906 31.482 25.4986C31.1734 32.2538 26.0299 31.5125 19.7074 31.5125C8.17942 31.5125 7.84795 31.1826 7.84795 19.6497C7.84795 7.98293 8.76235 7.80005 18.4093 7.79025V7.79352ZM27.4292 10.1955C26.9689 10.1955 26.5274 10.3783 26.2019 10.7038C25.8764 11.0294 25.6935 11.4708 25.6935 11.9312C25.6935 12.3915 25.8764 12.833 26.2019 13.1585C26.5274 13.4841 26.9689 13.6669 27.4292 13.6669C27.8896 13.6669 28.3311 13.4841 28.6566 13.1585C28.9821 12.833 29.165 12.3915 29.165 11.9312C29.165 11.4708 28.9821 11.0294 28.6566 10.7038C28.3311 10.3783 27.8896 10.1955 27.4292 10.1955ZM19.7058 12.2251C18.73 12.2252 17.7638 12.4175 16.8624 12.791C15.9609 13.1645 15.1419 13.7119 14.452 14.402C13.0587 15.7956 12.2761 17.6856 12.2763 19.6563C12.2765 21.6269 13.0595 23.5168 14.4531 24.9101C15.8468 26.3034 17.7368 27.086 19.7074 27.0858C21.6781 27.0856 23.5679 26.3025 24.9612 24.9089C26.3545 23.5153 27.1372 21.6253 27.1369 19.6546C27.1367 17.684 26.3537 15.7941 24.9601 14.4008C23.5665 13.0075 21.6764 12.2249 19.7058 12.2251ZM19.7058 14.8328C26.0821 14.8328 26.0903 24.4797 19.7058 24.4797C13.3311 24.4797 13.3213 14.8328 19.7058 14.8328Z" fill="white"/>
<defs>
<linearGradient id="paint0_linear_125_730" x1="2.63878" y1="36.7483" x2="39.0605" y2="5.22574" gradientUnits="userSpaceOnUse">
<stop stop-color="gray"/>
<stop offset="0.5" stop-color="gray"/>
<stop offset="1" stop-color="gray"/>
</linearGradient>
</defs>
</svg>
