<svg width="40" height="40" viewBox="0 0 40 40" fill="none" xmlns="http://www.w3.org/2000/svg">
<path d="M34.053 0H5.63172C2.6886 0 0.302734 2.38587 0.302734 5.32898V33.7502C0.302734 36.6933 2.6886 39.0792 5.63172 39.0792H34.053C36.9961 39.0792 39.3819 36.6933 39.3819 33.7502V5.32898C39.3819 2.38587 36.9961 0 34.053 0Z" fill="gray"/>
<path d="M30.488 10.0969L30.0838 10.2435L8.15064 18.1459C7.99521 18.194 7.86012 18.2922 7.76655 18.4253C7.67297 18.5584 7.6262 18.7188 7.63357 18.8813C7.64093 19.0438 7.70201 19.1993 7.80724 19.3234C7.91247 19.4475 8.0559 19.5331 8.21504 19.567L13.8926 21.1212L14.9518 24.2298L16.0109 27.3384C16.0717 27.4908 16.1689 27.626 16.2938 27.7323C16.4188 27.8387 16.5678 27.9129 16.728 27.9486C16.8881 27.9842 17.0546 27.9803 17.2129 27.937C17.3712 27.8937 17.5165 27.8125 17.6362 27.7003L20.5694 24.9292L26.3291 28.8349C27.033 29.3146 28.0366 28.9593 28.2165 28.1688L32.0311 11.3137C32.2177 10.4788 31.3384 9.79272 30.488 10.0969ZM27.688 13.8383L17.7783 21.9384L17.3121 22.3203C17.2096 22.4015 17.1427 22.5193 17.1255 22.6489L17.0212 23.5104L16.7347 25.9306C16.7371 25.9601 16.7277 25.9893 16.7085 26.0118C16.6894 26.0342 16.6621 26.0482 16.6326 26.0506C16.6032 26.0529 16.574 26.0435 16.5515 26.0243C16.529 26.0052 16.5151 25.9779 16.5127 25.9484L15.7067 23.5304L14.874 21.0546C14.8388 20.9433 14.8435 20.8233 14.8873 20.7151C14.931 20.6069 15.0112 20.5173 15.1138 20.4618L25.4254 14.5511L27.3661 13.4408C27.6481 13.2765 27.9367 13.634 27.688 13.8383Z" fill="white"/>
</svg>
