<svg width="40" height="40" viewBox="0 0 40 40" fill="none" xmlns="http://www.w3.org/2000/svg">
<path d="M34.1311 0H5.70984C2.76673 0 0.380859 2.38587 0.380859 5.32898V33.7502C0.380859 36.6933 2.76673 39.0792 5.70984 39.0792H34.1311C37.0742 39.0792 39.4601 36.6933 39.4601 33.7502V5.32898C39.4601 2.38587 37.0742 0 34.1311 0Z" fill="gray"/>
<path d="M28.5376 10.9275C26.5047 8.8743 23.805 7.61513 20.9254 7.37713C18.0458 7.13913 15.176 7.93797 12.8336 9.62956C10.4911 11.3211 8.83027 13.7941 8.15058 16.6024C7.47089 19.4107 7.81712 22.3695 9.1268 24.945L7.84118 31.1865C7.82784 31.2487 7.82746 31.3129 7.84007 31.3751C7.85268 31.4374 7.878 31.4964 7.91446 31.5485C7.96786 31.6274 8.04408 31.6882 8.13296 31.7228C8.22183 31.7573 8.31912 31.7639 8.41183 31.7416L14.5291 30.2917C17.0973 31.5682 20.0352 31.8922 22.8199 31.2059C25.6046 30.5197 28.0555 28.8677 29.7365 26.544C31.4176 24.2203 32.2197 21.3756 32.0001 18.516C31.7806 15.6564 30.5537 12.9674 28.5376 10.9275ZM26.6303 26.1506C25.2237 27.5533 23.4124 28.4792 21.4518 28.7978C19.4911 29.1165 17.4798 28.8119 15.7014 27.927L14.8488 27.5051L11.0985 28.3933L11.1096 28.3466L11.8868 24.5719L11.4693 23.7482C10.5607 21.9636 10.2401 19.9371 10.5536 17.9592C10.8671 15.9813 11.7986 14.1533 13.2146 12.7371C14.9938 10.9585 17.4066 9.95927 19.9224 9.95927C22.4382 9.95927 24.8511 10.9585 26.6303 12.7371C26.6454 12.7545 26.6618 12.7708 26.6791 12.786C28.4363 14.5693 29.4172 16.9749 29.4081 19.4784C29.3989 21.9819 28.4004 24.3803 26.6303 26.1506Z" fill="white"/>
<path d="M26.2983 23.386C25.8387 24.1098 25.1126 24.9958 24.2 25.2156C22.6013 25.602 20.1478 25.2289 17.0947 22.3824L17.057 22.3491C14.3725 19.86 13.6753 17.7883 13.844 16.1452C13.9373 15.2127 14.7144 14.3689 15.3694 13.8183C15.473 13.7299 15.5958 13.6669 15.728 13.6345C15.8603 13.6021 15.9982 13.601 16.1309 13.6314C16.2636 13.6619 16.3874 13.7229 16.4923 13.8097C16.5972 13.8965 16.6803 14.0067 16.735 14.1313L17.7231 16.3517C17.7873 16.4957 17.8111 16.6544 17.7919 16.8109C17.7727 16.9674 17.7113 17.1157 17.6143 17.2399L17.1147 17.8883C17.0075 18.0221 16.9428 18.185 16.929 18.356C16.9151 18.5269 16.9527 18.6981 17.037 18.8475C17.3167 19.3382 17.9873 20.0598 18.7311 20.7282C19.566 21.4831 20.4919 22.1737 21.0781 22.409C21.235 22.4731 21.4074 22.4887 21.5732 22.4539C21.7391 22.4191 21.8907 22.3354 22.0085 22.2136L22.588 21.6297C22.6998 21.5194 22.8389 21.4407 22.991 21.4017C23.1431 21.3627 23.3029 21.3648 23.454 21.4076L25.8009 22.0737C25.9304 22.1134 26.0491 22.1822 26.1479 22.2749C26.2467 22.3675 26.323 22.4814 26.371 22.6081C26.419 22.7347 26.4374 22.8706 26.4248 23.0055C26.4122 23.1403 26.3689 23.2704 26.2983 23.386Z" fill="white"/>
</svg>
