<svg width="183" height="45" viewBox="0 0 183 45" fill="none" xmlns="http://www.w3.org/2000/svg">
<path fill-rule="evenodd" clip-rule="evenodd" d="M44.0313 0V44.0313H0V0H44.0313ZM108.376 33.6427L110.667 38.5776L112.826 33.6427H115.149L111.151 42.3999H110.227L106.03 33.6427H108.376ZM143.251 33.6423L145.277 38.4119L147.501 33.6423H149.231L151.456 38.4119L153.472 33.6423H155.752L151.975 42.3994H151.049L148.361 36.7596L145.685 42.3994H144.76L140.959 33.6423H143.251ZM64.513 33.5323C65.4382 33.5323 66.4186 33.7637 67.443 34.2043V35.8896C66.2974 35.3719 65.3832 35.1196 64.7002 35.1196C64.3147 35.1196 64.0063 35.1846 63.7749 35.3168C63.5436 35.449 63.4335 35.6263 63.4335 35.8345C63.4335 35.9998 63.5106 36.165 63.6758 36.3093C63.841 36.4525 64.2376 36.6497 64.8765 36.881C65.5154 37.1123 66.0221 37.3326 66.4076 37.5309C66.7821 37.7303 67.1126 38.0156 67.41 38.3802C67.6854 38.7437 67.8286 39.2063 67.8286 39.767C67.8286 40.5601 67.5201 41.199 66.9143 41.6726C66.3085 42.1463 65.5043 42.3886 64.513 42.3886C63.4445 42.3886 62.398 42.1132 61.3956 41.5515V39.6899C61.9684 40.0765 62.4751 40.3618 62.9268 40.5381C63.3784 40.7154 63.8521 40.8024 64.3477 40.8024C65.1959 40.8024 65.6145 40.5381 65.6145 40.0093C65.6145 39.8221 65.5264 39.6579 65.3611 39.4916C65.1959 39.3385 64.7883 39.1391 64.1384 38.9078C63.4996 38.6875 62.9818 38.4683 62.6073 38.2689C62.2218 38.0706 61.9023 37.7842 61.627 37.4207C61.3516 37.0572 61.2194 36.5847 61.2194 36.0108C61.2194 35.2728 61.5168 34.6669 62.1116 34.2153C62.7065 33.7637 63.5106 33.5323 64.513 33.5323ZM75.8695 33.6422V37.5306L78.6233 33.6422H80.9916L78.1717 37.7068L81.994 42.2792H79.2952L75.8695 38.2366V42.2792H73.7215V33.6422H75.8695ZM122.86 33.6427V42.2798H120.713V33.6427H122.86ZM89.0106 33.6422L90.8832 36.353L92.7668 33.6422H95.3664L91.9627 38.2576V42.2792H89.8147V38.2476L86.4 33.6422H89.0106ZM135.683 33.6416V35.2289H131.552V37.0354H135.495V38.6216H131.552V40.7035H135.771V42.2787H129.404V33.6416H135.683ZM22.0061 11.4289L12.9684 31.1288H15.11L22.0173 15.992L28.9426 31.1288H31.0809L22.0061 11.4289ZM162.027 3.49278C163.439 3.49278 164.826 3.85494 166.241 4.60237V6.10494C164.374 5.07131 163.411 4.76088 162.16 4.76088C159.97 4.76088 158.316 6.20731 158.316 8.12378C158.316 12.8318 166.989 10.5796 166.989 16.7583C166.989 19.4761 164.668 21.5952 161.704 21.5952C160.212 21.5952 158.635 21.0789 157.038 20.0419V18.4414C159.064 19.8603 160.212 20.3293 161.626 20.3293C163.788 20.3293 165.468 18.8014 165.468 16.8101C165.468 11.7949 156.793 13.992 156.793 8.17331C156.793 5.56446 159.142 3.49278 162.027 3.49278ZM177.399 3.49311C178.816 3.49311 180.203 3.85527 181.616 4.6027V6.10527C179.747 5.07164 178.787 4.76011 177.531 4.76011C175.345 4.76011 173.689 6.20764 173.689 8.12411C173.689 12.8311 182.365 10.5789 182.365 16.7586C182.365 19.4765 180.045 21.5944 177.079 21.5944C175.584 21.5944 174.009 21.0792 172.406 20.0423V18.4417C174.436 19.8606 175.584 20.3296 177.001 20.3296C179.162 20.3296 180.843 18.8017 180.843 16.8104C180.843 11.7952 172.167 13.9924 172.167 8.17364C172.167 5.56479 174.515 3.49311 177.399 3.49311ZM69.1497 2.82527L69.5339 3.59472L77.5421 21.3635H76.1441L73.3987 15.2597L72.8902 14.1237L69.1541 5.8205L65.4423 14.1237L64.9337 15.2597L62.1906 21.3635H60.7893L69.1497 2.82527ZM88.2679 3.7267C95.6431 3.7267 97.7258 8.66701 97.7258 12.5429C97.7258 16.6312 95.3602 21.3634 88.4946 21.3634H82.1916V3.7267H88.2679ZM109.268 3.7267C116.643 3.7267 118.727 8.66701 118.727 12.5429C118.727 16.6312 116.365 21.3634 109.5 21.3634H103.198V3.7267H109.268ZM128.755 3.72593C133 3.72593 134.5 5.92309 134.5 8.27767C134.5 10.3196 133.406 11.7429 131.194 12.5707C132.008 13.0077 132.694 14.0171 133.504 15.2599L137.42 21.3638H135.844L132.819 16.5269C130.735 13.1916 130.075 12.9087 127.994 12.9087H125.652V21.3638H124.305V3.72593H128.755ZM151.101 3.7267V4.86491H142.989V11.7723H150.897V12.9127H142.989V20.223H151.303V21.3634H141.644V3.7267H151.101ZM88.3449 4.86491H83.5389V20.223H88.4209C92.5907 20.223 96.2739 17.5118 96.2739 12.5429C96.2739 8.01755 93.0464 4.86491 88.3449 4.86491ZM109.348 4.86491H104.542V20.223H109.423C113.594 20.223 117.278 17.5118 117.278 12.5429C117.278 8.01755 114.048 4.86491 109.348 4.86491ZM128.471 4.86414H125.652V11.7671H128.526C131.577 11.7671 133.049 10.4253 133.049 8.30298C133.049 6.31277 131.651 4.86414 128.471 4.86414Z" fill="#1A1B19"/>
</svg>
