<svg width="183" height="36" viewBox="0 0 183 36" fill="none" xmlns="http://www.w3.org/2000/svg">
<path d="M53.9076 33.4349L50.8736 26.5371H49.0322V35.7447H50.5325V29.5281L53.2676 35.7447H54.4813L57.1648 29.546V35.7447H58.666V26.5371H56.8847L53.9076 33.4349Z" fill="#4C3F20"/>
<path d="M64.6374 26.5371L60.7295 35.7445H62.439L65.389 28.5438L66.644 31.5935H65.0806L64.6015 33.0042H67.225L68.3536 35.7445H70.1434L66.2144 26.5371H64.6374Z" fill="#4C3F20"/>
<path d="M73.1559 32.9875C73.1559 33.9086 72.6539 34.3361 71.5748 34.3361H71.3271V35.7458H71.5748C74.2214 35.7458 74.7761 34.2455 74.7761 32.9874V26.5371H73.1559V32.9874V32.9875Z" fill="#4C3F20"/>
<path d="M78.084 35.7444H79.7061V26.5371H78.084V35.7444Z" fill="#4C3F20"/>
<path d="M86.382 26.5371H82.9658V35.7445H86.382C89.418 35.7445 90.9561 34.1161 90.9561 30.904C90.9561 28.0057 89.418 26.5372 86.382 26.5372V26.5371ZM86.382 34.3361H84.5891V27.9448H86.382C88.3685 27.9448 89.3339 28.9133 89.3339 30.904C89.3339 33.2139 88.3685 34.3361 86.382 34.3361Z" fill="#4C3F20"/>
<path d="M101.034 26.5371L97.124 35.7445H98.8326L101.784 28.5438L103.04 31.5935H101.475L100.997 33.0042H103.621L104.748 35.7445H106.539L102.61 26.5371H101.034Z" fill="#4C3F20"/>
<path d="M110.219 26.5371H108.598V35.7445H114.777V34.3361H110.219V26.5371Z" fill="#4C3F20"/>
<path d="M121.67 35.7444H123.291V31.7861H127.646V30.3743H123.291V27.9456H127.861V26.5371H121.67V35.7444Z" fill="#4C3F20"/>
<path d="M136.266 32.1337C136.266 33.677 135.552 34.3962 134.016 34.3962C132.48 34.3962 131.764 33.677 131.764 32.1337V26.5371H130.142V32.1337C130.142 34.5697 131.445 35.8058 134.016 35.8058C136.587 35.8058 137.89 34.5696 137.89 32.1337V26.5371H136.267V32.1337H136.266Z" fill="#4C3F20"/>
<path d="M140.17 27.9455H142.91V35.7444H144.535V27.9455H147.276V26.5371H140.17V27.9455Z" fill="#4C3F20"/>
<path d="M148.883 27.9455H151.623V35.7444H153.246V27.9455H155.988V26.5371H148.883V27.9455Z" fill="#4C3F20"/>
<path d="M160.468 26.5371L156.561 35.7445H158.27L161.218 28.5438L162.475 31.5935H160.912L160.431 33.0042H163.056L164.185 35.7445H165.973L162.044 26.5371H160.468Z" fill="#4C3F20"/>
<path d="M168.223 35.7444H169.844V26.5371H168.223V35.7444Z" fill="#4C3F20"/>
<path d="M177.973 33.4349L174.938 26.5371H173.099V35.7447H174.599V29.5281L177.332 35.7447H178.549L181.232 29.546V35.7447H182.732V26.5371H180.951L177.973 33.4349Z" fill="#4C3F20"/>
<path d="M66.874 23.3964H68.4962V21.5488H66.874V23.3964Z" fill="#4C3F20"/>
<path d="M71.3365 21.5488H69.7119V23.3964H71.3365V21.5488Z" fill="#4C3F20"/>
<path d="M106.171 7.9668H104.55V9.81979H106.171V7.9668Z" fill="#4C3F20"/>
<path d="M123.654 17.013V9.26465H122.041V16.5161C122.041 17.211 121.973 17.6847 121.833 17.9341C121.652 18.2943 121.284 18.4691 120.708 18.4691L108.124 18.4511C107.756 18.4511 107.405 18.3964 107.076 18.2879C107.628 17.9511 108.07 17.5068 108.399 16.9655C108.804 16.3118 109.009 15.594 109.009 14.8308C109.009 13.8643 108.697 13.0348 108.082 12.3661C107.407 11.6376 106.482 11.2672 105.329 11.2672C104.192 11.2672 103.271 11.6356 102.592 12.3641C101.97 13.0252 101.654 13.8558 101.654 14.8309C101.654 15.5941 101.859 16.3119 102.263 16.9636C102.592 17.507 103.036 17.9512 103.583 18.2881C103.254 18.3966 102.904 18.4513 102.536 18.4513H92.2932C92.2986 18.2849 92.2986 18.1249 92.2986 17.9681C92.2986 14.2194 90.9268 12.3189 88.2211 12.3189C86.3527 12.3189 84.4618 13.6665 83.2699 15.7699L83.4921 9.28089H81.813V18.4681L71.14 18.4524C71.2643 18.0566 71.3253 17.5818 71.3253 17.0112V12.336H69.7189V16.5164C69.7189 17.2028 69.6483 17.685 69.5114 17.9493C69.3293 18.2976 68.9598 18.4695 68.382 18.4695L63.477 18.4514C62.0023 18.4514 60.9957 17.5545 60.8484 16.1101C60.6094 13.712 59.3271 12.336 57.3323 12.336H52.6789C50.2587 12.336 49.0322 13.9036 49.0322 16.9945V22.6403H50.6409V17.0587C50.6409 15.0193 51.402 13.8014 52.6789 13.8014H54.3403C53.895 14.453 53.6696 15.2468 53.6696 16.167C53.6696 18.503 55.0759 20.0116 57.253 20.0116C58.566 20.0116 59.5482 19.4957 60.1787 18.4746C60.8019 19.5274 61.9517 20.0612 63.6042 20.0612H101.597C102.517 20.0612 103.135 20.0295 103.485 19.9642C104.067 19.8515 104.692 19.6083 105.347 19.2367C106.011 19.6146 106.613 19.8526 107.188 19.9642C107.539 20.0295 108.151 20.0612 109.062 20.0612H121.069C122.249 20.0612 123.654 19.5325 123.654 17.0133L123.654 17.013ZM105.329 12.7326C105.951 12.7326 106.444 12.9272 106.802 13.3114C107.142 13.6704 107.309 14.1146 107.309 14.6706C107.309 15.1949 107.135 15.7098 106.791 16.2013C106.441 16.712 105.967 17.0973 105.347 17.3763C104.694 17.0857 104.209 16.6951 103.866 16.1845C103.532 15.7088 103.372 15.2075 103.372 14.6539C103.372 13.5054 104.159 12.7326 105.329 12.7326H105.329ZM90.6584 17.7131C90.6584 17.9542 90.6498 18.207 90.631 18.4691H83.33C84.1534 15.9667 86.341 13.836 88.1443 13.836C89.694 13.836 90.6584 15.3201 90.6584 17.7131ZM57.253 18.4849C56.1721 18.4849 55.5277 17.6479 55.5277 16.2446C55.5277 14.7232 56.1793 13.8516 57.3142 13.8516C58.3691 13.8516 58.9725 14.661 58.9725 16.0718C58.9725 18.2342 57.991 18.4849 57.253 18.4849Z" fill="#4C3F20"/>
<path d="M127.972 9.26465H126.364V20.0596H127.972V9.26465Z" fill="#4C3F20"/>
<path d="M156.423 18.2087C156.423 14.7673 154.268 12.5459 150.935 12.5459C149.139 12.5459 147.75 13.1438 146.806 14.3261L146.667 14.4989L146.825 14.6546C147.34 15.1662 147.634 15.4673 147.779 15.6305L148.003 15.8809L148.176 15.5946C148.769 14.6145 149.678 14.1386 150.954 14.1386C153.313 14.1386 154.612 15.5547 154.612 18.1255C154.612 18.2286 154.606 18.337 154.598 18.4528H139.786C139.548 14.3819 137.693 12.3193 134.268 12.3193H134.021V13.867L134.679 13.8659C135.935 13.9417 136.833 14.4451 137.421 15.4061C137.883 16.1619 138.132 17.1864 138.16 18.4528H131.898V20.0616H156.424V18.2086L156.423 18.2087Z" fill="#4C3F20"/>
<path d="M152.032 21.5312H150.398V23.3809H152.032V21.5312Z" fill="#4C3F20"/>
<path d="M160.541 20.0627H176.327C176.974 20.9827 177.941 21.4502 179.204 21.4502C180.294 21.4502 181.175 21.0608 181.823 20.2952C182.43 19.5859 182.736 18.6751 182.736 17.5846C182.736 16.4676 182.439 15.5507 181.849 14.8578C181.214 14.1157 180.329 13.7398 179.22 13.7398C178.112 13.7398 177.221 14.1093 176.572 14.8411C175.929 15.576 175.603 16.5033 175.603 17.6015C175.603 17.8952 175.629 18.1814 175.682 18.4532C170.157 18.4532 161.06 18.4499 160.816 18.4393C160.452 18.3856 160.213 18.2613 160.081 18.055C159.899 17.7784 159.806 17.2928 159.806 16.6128V9.26465H158.165V17.2836C158.165 18.2026 158.412 18.8921 158.919 19.3839C159.364 19.8333 159.91 20.0628 160.541 20.0628L160.541 20.0627ZM179.204 19.95C178.6 19.95 178.153 19.729 177.836 19.2773C177.559 18.8668 177.419 18.3247 177.419 17.6667C177.419 16.9445 177.556 16.3854 177.839 15.9547C178.161 15.4622 178.629 15.2212 179.268 15.2212C179.857 15.2212 180.288 15.4411 180.581 15.8865C180.832 16.2844 180.959 16.8191 180.959 17.4731C180.959 19.1397 180.385 19.9501 179.204 19.9501V19.95Z" fill="#4C3F20"/>
<path d="M19.4709 0.832657C18.6647 1.10322 17.8665 1.43603 16.718 2.1529C11.9226 5.13217 9.77287 10.6117 9.55596 15.9146C9.54338 16.2158 9.5372 16.5157 9.5372 16.8168L9.53825 16.8147C9.5372 16.8441 9.53385 16.9978 9.53385 17.0463V35.8813H15.7714V17.0463C15.7714 15.8578 16.3107 14.7965 17.1559 14.0923L19.6161 17.0463L22.0745 14.0933C22.9208 14.7965 23.4597 15.8578 23.4597 17.0463V35.8813H29.6963V17.0463C29.6963 11.4784 25.1832 6.96504 19.6161 6.96504C18.2992 6.96504 17.0411 7.21769 15.8895 7.67677V7.67572C17.1674 6.17441 19.0972 5.43103 21.2058 5.38691H21.2122C21.8713 5.37119 22.5471 5.42485 23.2261 5.54609C28.7458 6.45042 32.9515 11.0771 32.9726 16.6578C32.982 16.8705 32.9873 17.0853 32.9873 17.3032V35.88H39.2185C39.2185 35.88 39.228 17.2885 39.228 17.1474C39.228 9.03264 34.3527 2.52658 26.0412 0.589546C25.739 0.521223 25.2571 0.424188 24.8276 0.366239C24.2128 0.285237 23.5832 0.216914 22.9304 0.216914C21.5818 0.216914 20.6007 0.455939 19.471 0.832657H19.4709ZM18.2729 0C7.51477 0 0 7.25122 0 16.8663V35.8813H6.24304C6.24304 35.8813 6.23759 25.4199 6.23759 16.8527C6.23759 7.9093 13.0206 1.53066 19.8277 0.146181C20.1036 0.0884423 20.4288 0 20.1057 0L18.2729 0Z" fill="#B69A61"/>
</svg>
