<svg width="183" height="177" viewBox="0 0 183 177" fill="none" xmlns="http://www.w3.org/2000/svg">
<path fill-rule="evenodd" clip-rule="evenodd" d="M94.072 62.3389C94.072 62.3389 90.8886 66.549 86.6777 66.3434C86.6777 66.3434 94.277 68.7052 94.072 62.3389Z" fill="#D2AC3A"/>
<path fill-rule="evenodd" clip-rule="evenodd" d="M98.0607 60.6987L99.3951 58.6453C101.86 61.5211 101.244 77.7449 101.244 77.7449C105.043 60.8015 100.113 52.3818 100.113 52.3818C99.4986 56.4892 96.9306 59.2621 95.0822 60.5972C94.7744 60.8015 96.1095 62.6506 97.1355 66.9629C97.1355 66.9629 99.4979 74.5621 94.0555 74.5621C94.0555 74.5621 96.3144 67.5797 90.4615 69.1197C84.6085 70.6604 87.6892 75.486 87.6892 75.486C87.6892 75.486 90.4615 73.5348 91.1804 75.1782C91.1804 75.1782 87.1765 77.3344 85.9436 79.08C84.7113 80.9284 85.1218 82.879 85.019 83.5979C84.9162 84.5224 84.198 87.8081 77.2148 90.4782C77.2148 90.4782 83.0678 93.2505 86.0457 87.9109C88.9208 82.674 84.8134 82.2635 92.1036 77.8477C92.1036 77.8477 98.7783 79.2856 99.6001 71.8926C100.422 64.7046 98.0607 60.6994 98.0607 60.6994V60.6987Z" fill="#D2AC3A"/>
<path fill-rule="evenodd" clip-rule="evenodd" d="M82.5514 48.0486L80.1897 45.6875L77.5195 48.4591L79.7785 50.7194L82.5514 48.0486Z" fill="#D2AC3A"/>
<path fill-rule="evenodd" clip-rule="evenodd" d="M95.8092 42.4018L93.549 40.04L90.7773 42.8123L93.1391 45.0713L95.8092 42.4018Z" fill="#D2AC3A"/>
<path fill-rule="evenodd" clip-rule="evenodd" d="M81.8457 85.7387L79.5867 83.377L76.8145 86.1499L79.1762 88.5117L81.8457 85.7387Z" fill="#D2AC3A"/>
<path fill-rule="evenodd" clip-rule="evenodd" d="M93.349 80.3949L93.7602 79.5738C93.7602 79.5738 93.4518 78.5471 92.3223 79.6766C90.7823 81.4222 91.9118 82.6545 91.9118 82.6545C91.9118 82.6545 90.1662 84.9134 91.0901 86.1457C92.0146 87.3773 96.5325 85.5296 97.6626 81.011C97.6626 81.011 94.3764 84.7078 92.7335 84.605C92.7335 84.605 91.8097 84.605 92.7335 83.2706C93.7609 81.9355 94.8897 81.7299 94.0686 80.2927L92.8363 81.5243C92.8363 81.5243 92.2202 81.011 92.6314 80.3949C93.0419 79.8815 93.3497 80.3949 93.3497 80.3949H93.349Z" fill="#D2AC3A"/>
<path fill-rule="evenodd" clip-rule="evenodd" d="M73.732 87.0754C74.3481 89.1294 75.0664 89.8483 75.7853 90.5673C78.0443 92.5185 81.5362 92.3129 81.5362 92.3129C97.246 91.5939 102.381 77.7318 102.381 77.7318C99.1972 90.9778 88.518 97.242 79.1738 96.3181C74.0391 95.9069 71.7808 91.2862 70.7541 87.3844C69.6246 83.1743 69.8302 74.549 69.8302 74.549C68.9063 33.886 84.6168 10.167 84.6168 10.167C73.3214 32.7571 71.987 58.9413 72.2948 72.8034C72.2948 72.8034 72.2948 79.7859 72.7053 82.6609C72.7053 82.6609 73.1165 85.6388 73.7326 87.076L73.732 87.0754Z" fill="#D2AC3A"/>
<path fill-rule="evenodd" clip-rule="evenodd" d="M76.0921 78.5557C77.7349 78.9669 81.3296 77.4262 82.7668 75.5784C84.923 72.8055 81.0206 70.0332 81.0206 70.0332L82.869 65.002C82.869 65.002 85.8469 66.7476 86.2581 71.4711C86.7714 76.6051 83.4858 80.8153 78.5567 82.6637C74.1409 84.3065 72.6009 79.6858 73.1142 75.4756L73.8325 69.9304C74.0374 68.3904 73.2164 77.8374 76.0915 78.5563L76.0921 78.5557Z" fill="#D2AC3A"/>
<path fill-rule="evenodd" clip-rule="evenodd" d="M90.1794 32.449C88.8443 34.4002 85.6608 37.2753 86.4826 42.3065C87.7148 50.2129 83.8131 56.682 78.165 55.9637C78.165 55.9637 86.7903 57.196 89.0493 52.9865C91.2054 48.8785 87.817 43.2317 89.6647 40.9715C91.1026 39.2265 93.8755 35.222 93.8755 32.7574C93.8755 30.5999 92.951 27.7255 92.2327 26.082C90.6927 22.0775 90.1794 20.8445 89.6654 18.2779C88.8443 14.1705 88.2282 0 88.2282 0V18.0723C88.2282 18.0723 88.0232 23.207 90.0773 27.0059C90.5906 28.0326 91.6166 30.1887 90.18 32.4477L90.1794 32.449Z" fill="#D2AC3A"/>
<path fill-rule="evenodd" clip-rule="evenodd" d="M79.4778 65.2038C79.0666 65.2038 78.7589 65.5115 78.5533 65.8199C77.7315 67.3599 78.2449 71.2617 78.2449 71.2617C78.2449 71.2617 77.5266 69.0027 76.8077 67.9761C76.7042 67.5655 76.2937 67.3599 75.8831 67.3599C75.3698 67.3599 74.8564 67.8733 74.8564 68.3866C74.8564 69.0021 75.3698 69.4133 75.8831 69.4133C76.1909 69.4133 76.4986 69.3105 76.7042 69.0021C77.2175 70.1316 78.5526 72.8017 78.7582 73.8284C78.7582 73.8284 78.5533 67.7705 79.1687 67.2565C79.2715 67.2565 79.3743 67.2565 79.4771 67.2565C80.0926 67.2565 80.5032 66.8453 80.5032 66.2298C80.5032 65.7165 80.0926 65.2031 79.4771 65.2031L79.4778 65.2038Z" fill="#D2AC3A"/>
<path fill-rule="evenodd" clip-rule="evenodd" d="M80.1996 41.492C82.6641 37.8966 86.9771 31.3254 88.0031 28.2453C89.3382 24.4457 86.668 20.0306 80.6101 26.3969C74.9634 32.4555 79.1729 38.1029 79.1729 38.1029C79.1729 38.1029 70.856 56.7919 77.0167 62.5414C81.7402 66.9565 91.4956 63.466 96.5269 56.9969C96.5269 56.9969 102.071 51.8622 99.8132 39.2324C97.9647 28.2447 92.009 15.717 90.3662 12.5342V18.0794C92.009 22.3917 98.1697 38.924 98.4781 43.5453C98.8886 48.4738 93.8574 58.3319 83.6914 59.5642C74.5528 60.7958 75.8879 50.425 77.9413 45.2916C78.5574 43.7509 80.2002 41.492 80.2002 41.492H80.1996ZM80.4052 30.5043C83.6901 25.5759 85.6413 26.6032 85.6413 26.6032C85.6413 26.6032 84.1013 29.786 81.9445 33.38C81.6361 33.8934 80.7122 33.38 80.7122 33.38C80.0961 33.0723 79.7884 32.4555 79.7884 32.045C79.8912 31.2239 80.4052 30.5043 80.4052 30.5043Z" fill="#D2AC3A"/>
<path fill-rule="evenodd" clip-rule="evenodd" d="M39.25 112.452C41.0339 112.452 41.0339 113.045 41.0339 115.722V136.534C41.0339 139.208 41.0339 139.804 39.25 139.804V140.099H49.9534C51.7353 140.099 53.5192 140.099 55.3031 138.911C57.087 138.02 59.1685 135.343 59.1685 131.777C59.1685 128.507 57.6823 127.021 56.7913 126.128C55.6027 124.939 54.1145 124.642 52.9259 124.344C53.8188 124.048 56.4936 122.56 56.4936 118.697C56.4936 116.02 55.0074 113.938 52.6301 113.045C51.1439 112.154 49.36 112.154 46.3875 112.154H39.2538V112.452H39.25ZM44.3021 112.75H45.195C46.3856 112.75 48.4652 112.75 50.2491 113.641C52.031 114.236 53.5192 116.02 53.5192 118.992C53.5192 120.478 53.2216 124.939 47.8699 124.939H44.3021V112.751V112.75ZM46.6813 125.533C49.3562 125.533 50.5448 125.83 51.4377 125.83C54.4102 126.425 55.8965 129.696 55.8965 133.261C55.8965 136.234 55.0055 137.72 53.8168 138.613C52.3306 139.208 50.8443 139.506 49.9534 139.506C44.3021 139.506 44.3021 137.127 44.3021 134.45V125.533H46.6813Z" fill="#D2AC3A"/>
<path fill-rule="evenodd" clip-rule="evenodd" d="M90.6798 140.099V139.804C88.5982 139.804 88.5982 138.911 88.5982 137.127V114.236C88.5982 112.452 89.4911 112.452 90.6798 112.452V112.154H83.2485V112.452H83.5442C85.0304 112.452 85.33 113.343 85.33 115.722V134.752C84.4371 135.94 81.7622 138.913 77.3034 138.913C75.2219 138.913 71.9518 138.022 70.4636 134.452C69.8702 132.966 69.8702 131.184 69.8702 129.993V114.533C69.8702 112.454 71.0608 112.454 71.9518 112.454V112.156H64.5186V112.454C66.6001 112.454 66.6001 112.751 66.6001 114.831V131.481C66.6001 137.722 71.0608 140.401 75.8172 140.401C77.3034 140.401 81.4646 140.101 85.3319 135.94V140.101H90.6836L90.6798 140.099Z" fill="#D2AC3A"/>
<path fill-rule="evenodd" clip-rule="evenodd" d="M96.9189 112.448C98.4052 112.448 99.0024 112.746 99.0024 114.825V137.123C99.0024 139.204 98.7048 139.8 96.9189 139.8V140.095H104.352V139.8C102.866 139.8 102.273 139.502 102.273 137.421V126.717H104.65H105.838H107.027L109.704 130.88L110.001 131.178C110.001 131.178 112.379 135.043 114.758 137.718C116.54 140.097 118.621 140.395 120.11 140.395C121.596 140.395 123.08 140.095 123.973 139.8C124.57 139.502 125.164 139.204 126.056 138.609L125.757 138.014C125.757 138.312 125.166 138.609 124.57 138.905C124.273 138.905 123.677 139.203 122.784 139.203C120.407 139.203 118.621 137.714 118.028 136.823C115.948 134.444 112.676 129.69 112.081 129.094V128.797L110.001 125.527C112.676 124.336 115.055 121.661 115.055 118.391C115.055 115.121 113.272 113.337 110.892 112.744C109.406 112.148 107.92 112.148 104.947 112.148H96.9189V112.446V112.448ZM102.273 113.041H104.65C107.327 113.041 108.813 113.637 109.704 114.53C111.486 116.313 112.081 118.395 112.081 120.179C112.081 122.854 110.595 124.34 109.109 125.233C108.216 125.828 106.134 126.124 105.243 126.124H102.271V113.043L102.273 113.041Z" fill="#D2AC3A"/>
<path fill-rule="evenodd" clip-rule="evenodd" d="M129.626 112.15V112.448C131.707 112.448 132.003 113.339 132.003 115.123V140.689C132.003 141.284 132.003 143.366 131.406 145.447C130.814 147.231 129.326 148.717 126.949 148.717C126.058 148.717 125.758 148.717 125.463 148.717L125.165 149.013C125.756 149.013 126.947 149.606 128.731 149.606C130.814 149.606 132.003 148.717 133.19 147.822C134.083 146.931 134.378 145.743 134.676 144.852C134.974 143.959 134.974 140.986 134.974 138.607V114.823C134.974 113.337 135.273 112.446 137.353 112.446V112.148H129.624L129.626 112.15Z" fill="#D2AC3A"/>
<path fill-rule="evenodd" clip-rule="evenodd" d="M16.057 162.685L20.2181 172.793V173.091C20.5157 173.684 20.8134 174.28 20.8134 174.577C20.8134 174.875 20.8134 175.47 19.9205 175.47V175.768H26.4607V175.47C24.6788 175.47 23.784 173.686 23.4882 172.793V172.2C23.1887 172.2 23.1887 171.902 23.1887 171.902L13.3782 147.228H12.783L2.67488 172.795C2.08153 174.282 1.78389 175.472 0 175.472V175.77H4.16305V175.472C3.86542 175.472 3.27014 175.472 3.27014 174.879C3.27014 174.581 3.27015 174.284 3.56779 173.986C3.56779 173.688 3.56779 173.688 3.56779 173.391L7.73084 162.687H16.055L16.057 162.685ZM8.0304 162.092L11.8958 152.579L15.7612 162.092H8.0304Z" fill="#D2AC3A"/>
<path fill-rule="evenodd" clip-rule="evenodd" d="M30.3242 175.77H49.6474V168.932H49.3517C49.0541 172.796 48.1612 174.58 44.2957 174.58H41.0256C37.1602 174.58 35.672 173.687 35.672 170.121V150.498C35.672 149.012 35.672 147.821 37.7535 147.821H30.3203C31.8066 148.119 32.3999 148.119 32.3999 150.2V173.093C32.3999 174.58 32.1023 175.473 30.3203 175.473V175.77H30.3242Z" fill="#D2AC3A"/>
<path fill-rule="evenodd" clip-rule="evenodd" d="M83.2484 162.685L87.4096 172.793C87.4096 172.793 87.4096 173.091 87.7072 173.091C87.7072 173.684 88.0029 174.28 88.0029 174.577C88.0029 174.875 88.0029 175.47 87.1119 175.47V175.768H93.6542V175.47C91.8703 175.47 91.275 173.686 90.9793 172.793L90.6817 172.2V171.902L80.5736 147.228H79.9802L69.8722 172.795C69.2769 174.282 68.9812 175.472 67.1973 175.472V175.77H71.3603V175.472C71.0627 175.472 70.4674 175.472 70.4674 174.879C70.4674 174.581 70.4674 174.284 70.765 173.986C70.765 173.688 70.7651 173.688 71.0627 173.391L75.2238 162.687H83.2523L83.2484 162.685ZM75.5176 162.092L79.3811 152.579L82.9508 162.092H75.5176Z" fill="#D2AC3A"/>
<path fill-rule="evenodd" clip-rule="evenodd" d="M98.7109 147.823C99.8996 148.121 100.792 148.121 100.792 150.5V172.798C100.792 174.879 100.495 175.177 98.7109 175.474V175.772H105.845V175.474C104.656 175.474 103.765 175.177 103.765 173.095V162.392H106.142C106.442 162.392 107.333 162.392 107.63 162.094H108.521L111.494 166.553C111.494 166.553 111.494 166.553 111.494 166.851C111.494 166.851 114.169 170.716 116.25 173.093C118.334 175.473 120.413 176.066 121.9 176.066C123.386 176.066 124.872 175.471 125.469 175.173C126.36 174.875 126.956 174.578 127.549 173.982V173.685C127.251 173.685 126.954 173.982 126.36 174.28C125.763 174.578 125.469 174.875 124.281 174.875C122.197 174.875 120.415 173.091 119.822 172.496C117.441 170.119 114.171 165.065 113.875 164.47L113.577 164.172L111.792 161.2C114.169 159.713 116.548 157.036 116.548 153.768C116.548 150.796 114.766 149.012 112.683 148.119C110.901 147.821 109.712 147.821 106.738 147.821H98.7109V147.823ZM103.765 148.418H106.142C108.819 148.418 110.305 149.014 111.494 150.202C112.982 151.689 113.577 153.77 113.577 155.554C113.577 158.229 112.089 160.013 110.901 160.906C109.712 161.203 107.928 161.501 106.738 161.501H103.765V148.418Z" fill="#D2AC3A"/>
<path fill-rule="evenodd" clip-rule="evenodd" d="M147.459 162.685L151.62 172.793V173.091C151.918 173.684 152.214 174.28 152.214 174.577C152.214 174.875 151.916 175.47 151.325 175.47V175.768H157.863V175.47C156.081 175.47 155.188 173.686 154.893 172.793V172.2C154.593 172.2 154.593 171.902 154.593 171.902L144.784 147.228H144.189L134.081 172.795C133.486 174.282 133.188 175.472 131.404 175.472V175.77H135.567V175.472C135.272 175.472 134.676 175.472 134.676 174.879C134.676 174.581 134.676 174.284 134.974 173.986C134.974 173.688 134.974 173.688 134.974 173.391L139.137 162.687H147.463L147.459 162.685ZM139.433 162.092L143.294 152.579L147.16 162.092H139.433Z" fill="#D2AC3A"/>
<path fill-rule="evenodd" clip-rule="evenodd" d="M162.92 147.823C164.704 148.121 164.704 148.716 164.704 151.095V172.202C164.704 174.58 164.704 175.473 162.624 175.473V175.77H173.625C175.409 175.77 177.195 175.77 178.977 174.58C180.463 173.389 182.546 171.012 182.546 167.148C182.546 164.174 181.356 162.392 180.463 161.797C178.977 160.309 177.489 160.011 176.598 160.011C177.489 159.416 180.167 157.931 180.167 154.363C180.167 151.687 178.383 149.605 176.302 148.417C174.816 147.821 173.032 147.821 170.059 147.821H162.924L162.92 147.823ZM167.974 148.418H168.867C170.055 148.418 172.135 148.123 173.921 149.014C175.705 149.905 177.193 151.393 177.193 154.661C177.193 155.852 176.895 160.608 171.244 160.608H167.974V148.418ZM170.053 161.203C172.73 161.203 174.216 161.203 175.107 161.501C178.082 162.096 179.568 165.069 179.568 168.934C179.568 171.905 178.675 173.391 177.191 173.986C176.002 174.879 174.514 174.879 173.621 174.879C167.972 174.879 167.972 172.798 167.972 170.123V161.203H170.051H170.053Z" fill="#D2AC3A"/>
</svg>
