<svg width="183" height="68" viewBox="0 0 183 68" fill="none" xmlns="http://www.w3.org/2000/svg">
<path d="M53.9321 5.82227C52.4287 5.82227 51.1885 7.06253 51.1885 8.56589V17.6236C51.1885 19.1269 52.4287 20.3672 53.9321 20.3672H64.6811V15.9323H56.7509V10.2572H64.6811V5.82227H53.9321ZM71.1455 5.82227C69.6421 5.82227 68.4019 7.06253 68.4019 8.56589V20.3672H74.077V17.4733L78.3992 16.7592V20.3672H84.0743V8.56589C84.0743 7.06253 82.8341 5.82227 81.3307 5.82227H71.1455ZM74.077 10.2947H78.3992V12.7377L74.1522 13.4142L74.077 10.2947Z" fill="#D17711"/>
<path d="M87.8359 5.83055V20.3755H93.3608V15.1889L97.2319 15.1138L98.0587 10.942H93.3608V10.2654H101.216V5.79297H87.8359V5.83055ZM103.621 5.83055V20.3755H109.146V15.1889L113.017 15.1138L113.844 10.942H109.146V10.2654H117.001V5.79297H103.621V5.83055ZM119.669 5.83055V20.4131H134.177V15.9782H125.194V15.1889L129.065 15.1138L129.892 10.942H125.194V10.2654H134.177V5.79297H119.669V5.83055Z" fill="#D17711"/>
<path d="M124.668 0L124.518 1.31543C124.48 2.02953 124.593 2.70604 124.894 3.34496C125.382 4.35973 126.472 4.99865 127.6 4.8859H134.365L133.763 2.63087L124.668 0ZM95.8789 27.812V65.9596H109.296V55.1355H115.911L123.127 65.9596H136.92L137.635 64.6066L130.682 54.6093C132.749 53.8576 134.177 51.8657 134.214 49.6483V34.4268C134.214 30.7436 131.245 27.7745 127.562 27.7745L95.8789 27.812ZM109.259 37.7342H120.797V45.3261H109.259V37.7342Z" fill="#D17711"/>
<path d="M0 27.8513V65.9613H11.9141V49.8378L42.2818 67.6525L43.6724 66.8633V27.7761H31.9463V44.8392L1.3906 27.0244L0 27.8513ZM51.0764 27.7761V65.9237H88.9609V55.513H64.4563V50.9653L75.1301 50.7398L77.0469 41.1184H64.4563V38.2244H88.9609V27.7761H51.0764Z" fill="#D17711"/>
<path d="M148.461 27.8057C144.778 27.8057 141.809 30.7748 141.809 34.458V59.2633C141.809 62.9466 144.778 65.9157 148.461 65.9157H175.897C179.505 65.9157 182.474 63.0217 182.549 59.4137V34.3453C182.474 30.7372 179.505 27.8433 175.897 27.8433H148.461V27.8057ZM154.512 38.2164H169.996V55.505H154.512V38.2164Z" fill="#D17711"/>
<path d="M97.2656 29.2041V64.6081H107.939V53.7463H116.659L123.875 64.6081H135.939L128.385 53.7463C130.565 53.7463 132.858 52.0927 132.858 49.6873V34.4658C132.858 31.5343 130.49 29.2041 127.596 29.2041C127.633 29.2041 97.2656 29.2041 97.2656 29.2041ZM107.902 36.3826H122.184V46.6806H107.902V36.3826Z" fill="#2F2F2F"/>
<path d="M1.38915 64.5708H10.5972V47.4325L42.3179 66.0365V29.1668H33.2978V47.2446L1.35156 28.6406V64.5708H1.38915ZM52.428 29.1668V64.5708H87.5689V56.9037H63.0642V49.65L73.9635 49.4245L75.3541 42.5091H63.0642V36.8715H87.5689V29.1668H52.428Z" fill="#2F2F2F"/>
<path d="M148.463 29.2031C145.531 29.2031 143.201 31.5709 143.201 34.4649V59.2702C143.201 62.1641 145.569 64.5319 148.463 64.5319H175.899C178.793 64.5319 181.161 62.1641 181.161 59.2702V34.4649C181.161 31.5333 178.793 29.2031 175.899 29.2031H148.463ZM153.161 36.8326H171.351V56.8648H153.161V36.8326ZM53.9392 6.65282C52.8869 6.65282 52.0225 7.51725 52.0225 8.56959V17.6273C52.0225 18.6796 52.8869 19.5441 53.9392 19.5441H63.8614V16.7253H55.9312V9.43402H63.8614V6.61523L53.9392 6.65282ZM71.1526 6.65282C70.1003 6.65282 69.2359 7.51725 69.2359 8.56959V19.5441H73.2949V16.7629L79.2332 15.8233V19.5441H83.2546V8.56959C83.2546 7.51725 82.3902 6.65282 81.3379 6.65282H71.1526ZM73.2573 9.47161H79.1956V13.4179L73.2573 14.3575V9.47161Z" fill="#2F2F2F"/>
<path d="M88.6641 6.65625V19.5851H92.5728V14.4361L96.5567 14.3609L97.0453 11.8428H92.5352V9.51262H100.39V6.69383C100.39 6.65625 88.6641 6.65625 88.6641 6.65625ZM104.449 6.65625V19.5851H108.358V14.4361L112.342 14.3609L112.83 11.8428H108.32V9.51262H116.175V6.69383H104.449V6.65625Z" fill="#2F2F2F"/>
<path d="M125.377 1.39102C125.339 2.06753 125.415 4.09706 127.67 4.09706H133.307L133.082 3.34538L125.377 1.12793V1.39102Z" fill="#2F2F2F"/>
<path d="M120.454 6.61523V19.5817H133.308V16.7629H124.325V14.3575L128.309 14.2823L128.798 11.7642H124.288V9.43402H133.27V6.61523H120.454Z" fill="#2F2F2F"/>
</svg>
