<svg width="183" height="67" viewBox="0 0 183 67" fill="none" xmlns="http://www.w3.org/2000/svg">
<path d="M107.758 31.2745L93.9411 0.0351562H92.1631L78.346 32.1789C77.0125 34.4399 76.5679 35.3443 75.2344 37.1531H79.6795L85.4583 23.5495H97.5343L103.313 37.1531H112.203C109.981 35.3443 109.092 34.4399 107.758 31.2745ZM86.8289 20.8739L91.274 10.0212L96.1637 20.8739H86.8289Z" fill="#4F4E50"/>
<path d="M67.6789 0.493164H65.9008L51.1947 29.4715L36.0441 0.493164H33.8215L29.8209 31.7325C29.3763 34.8979 29.3763 35.8023 28.4873 37.6111H32.9325C32.488 36.2545 32.488 33.5413 32.9325 31.2803L35.5996 12.2503L48.5276 37.1589H50.7502L63.2337 13.1547L65.4563 30.8281C65.9008 32.9007 65.9008 35.0863 65.4563 37.1589L73.4576 37.6111C72.5686 35.8023 72.1241 34.8979 71.6796 31.7325L67.6789 0.493164Z" fill="#4F4E50"/>
<path d="M21.8184 33.9902H7.14932V19.4822H22.7074L23.5965 16.769H7.14932V2.26099H20.0774C21.2998 2.29867 22.5222 2.60014 23.6335 3.16538C24.078 3.16538 24.5225 3.61758 24.967 3.61758V0H0C0.889034 2.71319 0.889033 4.06978 0.889033 5.87857V31.2393C0.889033 33.0481 0.889034 34.4047 0 37.1179H26.2636L26.7081 33.5003C26.7081 33.0858 24.041 34.4424 21.8184 33.9902Z" fill="#4F4E50"/>
<path d="M145.622 31.2745L131.805 0.0351562H130.027L116.21 32.1789C114.877 34.4399 114.432 35.3443 113.099 37.1531H117.544L123.323 23.5495H135.362L141.14 37.1154H150.031C147.845 35.3443 146.956 34.4399 145.622 31.2745ZM124.249 20.8739L129.138 10.0212L134.028 20.8739H124.249Z" fill="#4F4E50"/>
<path d="M165.21 19.9697H166.544C171.433 19.0653 175.878 15.8999 175.878 10.4735C175.878 -0.379207 163.432 0.0729882 158.061 0.0729882H150.504C151.393 2.78618 151.393 4.14277 151.393 5.95156V31.3123C151.393 33.1211 151.393 34.4777 150.504 37.1909H158.505C157.616 34.4777 157.616 33.1211 157.616 31.3123V20.0074C158.505 20.0074 159.394 20.4596 161.172 22.2684C165.469 27.6571 170.248 32.6689 175.434 37.2286H182.546C181.657 36.701 165.21 19.9697 165.21 19.9697ZM158.061 18.1609V2.29629C169.174 1.84409 170.544 7.72267 170.544 10.4359C170.544 13.149 169.655 16.3521 166.099 17.7087C163.839 18.6131 157.616 18.1609 158.061 18.1609Z" fill="#4F4E50"/>
<path d="M33.9153 66.1747V58.3059H25.0117V66.1747H23.3994V49.3301H25.0117V56.8139H33.9153V49.3301H35.5035V66.1747H33.9153Z" fill="black"/>
<path d="M47.1802 66.4635C44.6294 66.4635 42.7284 65.4769 41.4771 64.0812C40.1777 62.6614 39.3595 60.5679 39.3595 57.9209C39.3595 53.7579 41.1402 50.9424 44.1 49.6911C45.1107 49.2579 46.2417 49.0654 47.493 49.0654C49.9475 49.0654 51.7764 50.052 53.0036 51.3996C54.279 52.7953 55.1212 54.8888 55.1212 57.5118C55.1212 61.6989 53.3886 64.5865 50.4529 65.8378C49.4662 66.2469 48.3834 66.4635 47.1802 66.4635ZM47.3005 50.5333C45.2792 50.5333 43.7631 51.4237 42.7525 52.5547C41.6937 53.7819 40.9718 55.5626 40.9718 57.8006C40.9718 61.1214 42.3193 63.4074 44.6054 64.4421C45.3754 64.779 46.2176 64.9715 47.1561 64.9715C50.3807 64.9715 52.2817 63.2149 53.0758 60.7363C53.3646 59.846 53.5089 58.8353 53.5089 57.6802C53.5089 54.3594 52.2095 52.0012 49.8753 51.0146C49.1053 50.6777 48.239 50.5333 47.3005 50.5333Z" fill="black"/>
<path d="M62.5342 64.9475C64.6758 64.9475 66.1918 64.1534 66.1918 62.1561C66.1918 61.2657 65.9753 60.7845 65.5181 60.2791C65.2534 59.9904 64.9165 59.7016 64.4593 59.3888C64.002 59.0759 63.4245 58.739 62.7267 58.33C61.8844 57.8487 61.2107 57.3674 60.6572 56.9583C59.5262 56.092 58.8043 55.1776 58.8043 53.445C58.8043 52.0734 59.4299 51.0387 60.224 50.3408C61.0903 49.5708 62.3898 49.0654 63.978 49.0654C65.4218 49.1136 66.7212 49.6189 67.9004 50.5574L66.9138 51.7606C65.9031 50.9424 64.8683 50.5333 63.8336 50.5333C62.2935 50.5333 61.1625 51.1349 60.6813 52.1937C60.5128 52.5306 60.4406 52.8916 60.4406 53.3006C60.4406 54.191 60.6331 54.6723 61.0903 55.1776C61.331 55.4423 61.6919 55.7311 62.1491 56.0439C63.6892 57.0786 65.9271 58.1856 67.01 59.5572C67.5394 60.2069 67.8041 60.8807 67.8041 61.9636C67.8041 64.2496 66.5287 65.525 64.748 66.1025C64.0742 66.3191 63.2561 66.4394 62.3416 66.4394H62.3176C60.8978 66.3913 59.5984 65.8619 58.4193 64.9234L59.4059 63.7202C60.4406 64.5384 61.4754 64.9475 62.5342 64.9475Z" fill="black"/>
<path d="M75.5295 49.3301C78.9465 49.3301 80.9438 50.798 80.9438 54.1429C80.9438 56.7899 79.5241 58.4503 77.5509 59.1963C76.8289 59.461 75.9867 59.6053 75.0482 59.6053H72.9306V66.1747H71.3424V49.3301H75.5295ZM75.0242 58.1134C77.7193 58.1134 79.3316 56.8861 79.3316 54.2873C79.3316 51.9771 77.984 50.8221 75.3129 50.8221H72.9306V58.1134H75.0242Z" fill="black"/>
<path d="M85.6763 49.3301V66.1747H84.0881V49.3301H85.6763Z" fill="black"/>
<path d="M95.1328 50.8221V66.1747H93.5446V50.8221H88.8281V49.3301H99.8493V50.8221H95.1328Z" fill="black"/>
<path d="M103.307 61.0732C102.705 62.7096 102.031 64.5384 101.43 66.1747H99.6731L106.05 49.3301H107.446L113.726 66.1747H111.97L110.093 61.0732H103.307ZM106.868 52.314H106.892C106.82 52.1215 106.772 51.9771 106.7 51.7606C105.737 54.4557 104.847 56.9102 103.86 59.5813H109.539L106.868 52.314Z" fill="black"/>
<path d="M117.11 66.1747V49.3301H118.699V64.6828H125.292V66.1747H117.11Z" fill="black"/>
<path d="M129.893 49.3301V66.1747H128.305V49.3301H129.893Z" fill="black"/>
<path d="M139.35 50.8221V66.1747H137.762V50.8221H133.045V49.3301H144.066V50.8221H139.35Z" fill="black"/>
<path d="M153.076 58.1134C154.52 55.2017 156.084 52.2418 157.528 49.3301H159.236L153.798 59.7738V66.1747H152.234V59.7978C150.525 56.3327 148.792 52.7953 147.084 49.3301H148.865L152.739 57.3433C152.859 57.584 152.955 57.8487 153.076 58.1134Z" fill="black"/>
</svg>
