<svg width="183" height="163" viewBox="0 0 183 163" fill="none" xmlns="http://www.w3.org/2000/svg">
<path fill-rule="evenodd" clip-rule="evenodd" d="M106.911 9.20284C106.271 9.87116 104.012 13.2881 104.012 17.5145C104.012 18.5264 104.03 42.7695 104.012 43.6402C103.974 45.4851 102.849 48.1113 101.922 49.0385C101.268 49.6927 97.2483 53.3496 96.8906 53.7309L99.1686 53.7685C99.9075 53.0578 107.654 46.1958 108.464 45.2686C109.518 44.0685 112.027 41.0375 112.027 36.2698C112.027 35.1497 112.041 12.182 112.041 11.1654C112.041 7.40026 113.796 5.31058 114.7 4.29868C115.627 3.26326 118.677 0.717051 119.218 0.14286L116.827 0.0722656C116.248 0.651163 107.701 8.36509 106.906 9.19813L106.911 9.20284Z" fill="#E1464A"/>
<path fill-rule="evenodd" clip-rule="evenodd" d="M87.7188 104.181L97.2023 112.464H103.551C110.009 112.464 115.911 109.702 119.803 105.809C123.7 101.912 125.135 96.6787 125.135 91.7792C125.135 88.2164 125.135 78.8505 125.135 78.201C125.135 73.6357 122.269 70.9813 121.474 70.1859C121.041 69.7529 118.278 67.1455 118.278 67.1455V77.5657C118.278 77.5657 121.323 80.7096 121.921 81.345C124.731 84.3336 124.702 89.7743 115.798 98.4577C114.235 99.9779 109.787 104.181 103.664 104.181C102.794 104.181 87.7188 104.181 87.7188 104.181Z" fill="#E1464A"/>
<path fill-rule="evenodd" clip-rule="evenodd" d="M114.094 48.4719C113.035 49.5921 112.023 52.3266 112.023 54.7363C112.023 56.0776 112.023 59.8804 112.023 59.8804C112.023 59.8804 116.212 59.8804 117.238 59.8804C119.266 59.8804 121.939 58.0355 122.518 57.0566C122.556 56.986 122.518 51.9547 122.518 51.9547C122.518 51.9547 123.855 53.875 125.305 54.8869C125.851 54.1997 130.595 48.4437 134.572 48.4108C141.208 48.359 139.711 56.7318 136.996 59.4098C136.115 60.2711 132.195 63.8668 130.985 65.0199C127.851 68.0038 122.485 66.5731 122.485 58.8639C122.485 58.8639 116.729 64.3328 115.863 65.0529C114.997 65.7777 112.023 68.9263 112.023 68.9263C112.023 68.9263 112.023 81.1726 112.023 82.4716C112.023 88.9712 109.886 91.1503 108.112 93.1035C107.425 93.8612 100.106 100.535 99.1319 101.26L96.741 101.312C96.741 101.312 101.024 97.4193 101.88 96.5298C102.855 95.5179 103.994 93.4565 103.994 90.0302C103.994 89.1642 103.885 68.7381 103.885 68.7381C103.885 68.7381 72.0508 68.7381 70.6012 68.7381C59.0232 68.7381 56.5523 55.8894 56.477 52.4536C56.4582 51.4417 56.477 41.1816 56.477 39.5861C56.477 37.4729 55.1263 33.9101 52.9707 32.8135H56.237C56.6135 32.9688 58.6655 33.7971 58.6655 41.6758C58.6655 41.6758 58.5243 50.844 58.5243 51.3288C58.5243 55.3246 61.7012 59.904 66.29 59.904C67.2313 59.904 103.961 59.8663 103.961 59.8663C103.998 58.8544 105.01 55.0092 106.818 52.9808C107.844 51.8371 115.925 44.4432 116.847 43.7325L119.238 43.7043C118.876 44.0337 114.969 47.5401 114.098 48.4625L114.094 48.4719ZM126.462 56.1859C126.462 56.1859 128.642 59.0804 129.682 59.9134C133.739 63.1703 135.664 59.6734 132.943 55.9317C131.865 54.4586 127.691 54.8822 126.462 56.1859Z" fill="#E1464A"/>
<path fill-rule="evenodd" clip-rule="evenodd" d="M86.0727 80.4616C86.0727 82.283 80.2602 87.1119 79.9214 87.4508C79.5025 85.4929 78.0341 83.3279 73.7041 78.9932L80.0626 72.6348C84.3219 76.8988 86.0727 77.8072 86.0727 80.4616Z" fill="#E1464A"/>
<path fill-rule="evenodd" clip-rule="evenodd" d="M97.0895 7.56332C98.3649 8.83877 101.109 12.298 99.4662 13.95C98.0072 15.4043 95.7528 17.7152 95.7528 17.7152C95.6399 16.8822 93.5267 14.8819 93.5267 14.8819C93.5267 14.8819 93.5455 21.0239 93.5267 21.7816C93.4561 24.5537 92.4112 25.3444 92.4112 25.3444C92.4112 25.3444 97.5366 30.4274 97.5366 36.9553C97.5366 40.1228 97.5507 43.0361 97.5507 43.662C97.5507 44.9987 97.2118 46.0388 96.2799 47.0648C95.8187 47.5778 91.0699 52.3455 90.3498 52.9997C88.9755 54.2375 87.5259 54.4446 86.4434 54.4446C85.6809 54.4446 69.293 54.4446 68.7847 54.4446C66.0031 54.4446 63.1416 52.2749 63.1416 50.1052C63.1416 49.5593 63.1793 43.5585 63.1793 43.5585C64.0829 44.608 65.0054 45.8317 67.2315 45.8035C68.9682 45.7752 70.7943 44.4104 71.2838 43.9209C71.7921 43.4126 84.6408 29.9756 84.6408 29.9756C84.6408 29.9756 78.6212 24.3937 74.6584 21.7439C72.724 20.445 70.1543 22.0828 69.7636 23.7866C68.5446 29.1331 69.7636 37.1483 69.7636 37.1483C69.7636 37.1483 65.8337 33.2278 64.8877 32.2818C62.9251 30.3145 62.9957 25.8621 65.3348 23.5277C65.7066 23.1559 69.2694 19.1271 73.7971 19.1271C74.5219 19.1271 80.0473 19.1271 80.8474 19.1271C85.5774 19.1271 90.7498 23.843 90.7498 23.843C90.7498 23.843 91.5123 23.01 91.5123 22.2052C91.5123 19.7813 91.4229 13.244 91.4229 13.244C87.8648 9.68594 87.38 6.01017 89.0837 4.30643C92.27 1.12485 93.4231 0 93.4231 0C93.4231 0 93.3855 3.85931 97.0989 7.56802L97.0895 7.56332ZM74.936 43.0455C73.1946 44.8669 72.8934 45.3234 71.265 46.3024C71.4109 46.3024 90.5333 46.3024 91.1546 46.3024C96.5435 46.3024 95.4704 42.9561 94.5056 41.2711C92.5242 37.8119 86.2645 31.3781 86.2645 31.3781C86.2645 31.3781 75.2984 42.6595 74.936 43.0455Z" fill="#E1464A"/>
<path fill-rule="evenodd" clip-rule="evenodd" d="M52.2663 61.1658H49C49 61.1658 52.5063 63.0908 52.5063 68.0608C52.5063 69.3739 52.5063 82.8486 52.5063 83.9311C52.5063 94.2618 61.0251 103.811 71.3793 103.811C73.1207 103.811 78.8673 103.811 80.0251 103.811C85.2164 103.811 87.0378 102.555 90.177 99.7684C91.3254 98.7471 92.8221 97.0669 93.368 96.455C95.1753 94.4312 97.105 92.7934 97.105 87.4751C97.105 86.1714 97.105 83.0039 97.105 82.2791C97.105 77.7891 94.507 75.9207 93.2456 74.664C92.4408 73.8592 90.2288 71.746 90.2288 71.746V82.3874C90.2288 82.3874 92.4079 84.7077 93.368 85.4607C97.858 89.0047 94.2858 95.1608 90.1205 95.1608C89.2875 95.1608 72.2877 95.1655 71.1299 95.1984C64.1408 95.3726 54.6854 89.1365 54.6854 78.6504C54.6854 77.2385 54.6854 70.9412 54.6854 70.0234C54.6854 61.1611 52.2569 61.1611 52.2569 61.1611L52.2663 61.1658Z" fill="#E1464A"/>
<path fill-rule="evenodd" clip-rule="evenodd" d="M73.0893 80.4664C73.0893 82.2783 67.2768 87.1119 66.938 87.4508C66.5191 85.4929 65.0507 83.3279 60.7207 78.9932L67.0792 72.6348C71.3432 76.8988 73.0893 77.8025 73.0893 80.4617V80.4664Z" fill="#E1464A"/>
<path fill-rule="evenodd" clip-rule="evenodd" d="M21.5854 158.283C20.7505 158.283 14.3068 158.272 13.3846 158.272C10.8003 158.272 10.9976 156.124 10.7699 154.291V142.523C10.7699 142.523 12.5649 142.477 14.599 142.477C16.8721 142.477 19.6993 142.14 22.4544 143.699C22.4544 143.699 20.4735 138.925 14.5838 138.925H10.7699C10.7699 138.925 10.7699 138.246 10.7699 136.614V135.157C10.7699 135.157 10.7699 131.871 9.96921 130.903C9.96921 130.903 15.043 130.922 15.3883 130.922C20.0788 130.926 23.703 130.854 27.4713 133.366C27.4713 133.366 26.7503 127.161 17.6918 127.161C12.4663 127.161 0.740006 127.161 0 127.161C0 127.161 3.07008 129.791 2.98659 135.142L3.07008 156.583C3.07008 161.964 5.22558 162.116 5.22558 162.116C5.4343 162.116 6.52344 162.116 11.2671 162.116C12.0602 162.116 13.0203 162.116 14.0677 162.116C16.6293 162.116 19.9612 162.116 22.6632 162.116C26.6137 162.116 27.9912 159.289 27.9912 157.759L28.0519 155.703C28.0519 155.703 26.7958 158.287 21.5892 158.287L21.5854 158.283Z" fill="#E1464A"/>
<path fill-rule="evenodd" clip-rule="evenodd" d="M68.0016 156.475V141.478C68.0016 135.66 63.2466 134.112 59.7059 134.112C55.0154 134.112 53.6151 138.028 53.0155 139.376C51.9681 135.725 48.3174 134.07 45.3194 134.07C39.6575 134.07 38.2192 139.463 38.2192 139.463C38.2192 139.463 38.0864 134.256 33.5363 134.256L29.0811 134.268C29.0811 134.268 31.6616 135.33 31.6616 139.827L31.654 156.479C31.654 161.978 33.8702 162.073 33.8702 162.073H41.2134C41.0236 161.978 38.3937 159.993 38.3937 156.434V141.664C38.4848 141.007 39.5929 138.776 42.7617 138.776C44.5567 138.776 46.53 140.647 46.4845 142.749L46.4769 156.472C46.4769 162.05 48.6665 162.065 48.6665 162.065H56.04C56.04 162.065 53.2204 160.081 53.2204 156.426L53.1977 141.649C53.4747 140.825 54.4424 138.818 57.2278 138.818C59.4441 138.818 61.2998 140.689 61.258 142.795C61.258 142.795 61.2429 155.322 61.2504 156.487C61.2846 162.103 63.4401 162.05 63.4401 162.05C67.2805 162.05 70.8136 162.065 70.8136 162.065C70.8136 162.065 68.0016 160.122 68.0016 156.475Z" fill="#E1464A"/>
<path fill-rule="evenodd" clip-rule="evenodd" d="M80.8831 156.457C80.8831 160.154 83.7141 162.055 83.7141 162.055C83.7141 162.055 80.2076 162.04 76.371 162.04C76.371 162.04 74.1168 162.074 74.1168 156.499V156.473L74.1244 139.771C74.1244 135.365 71.5742 134.234 71.5742 134.234H76.0294C77.6005 134.234 80.8717 134.234 80.8717 140.462L80.8603 156.423L80.8869 156.45L80.8831 156.457Z" fill="#E1464A"/>
<path fill-rule="evenodd" clip-rule="evenodd" d="M103.507 136.342C103.507 136.342 102.801 134.338 99.746 134.338C95.1313 134.338 94.008 139.818 94.008 139.818C93.6324 135.488 92.4749 134.205 89.2189 134.205L84.7637 134.216C84.7637 134.216 87.3442 135.275 87.3442 139.772L87.3366 156.447C87.3366 161.95 89.5528 162.041 89.5528 162.041H96.896C96.7062 161.95 94.0764 159.965 94.0764 156.401L94.084 142.751C94.2775 141.51 94.915 140.562 95.8865 139.932C98.3077 138.364 101.613 138.736 103.503 141.047C103.503 141.047 103.503 138.099 103.503 136.334L103.507 136.342Z" fill="#E1464A"/>
<path fill-rule="evenodd" clip-rule="evenodd" d="M137.78 137.348C140.266 137.348 142.125 138.433 142.125 138.433L142.148 134.236H135.97L135.974 127.872C135.974 127.872 134.353 130.68 131.029 133.405C128.946 135.12 124.566 137.234 124.566 137.234L129.23 137.318L129.223 156.668C129.223 162.034 131.466 162.034 131.466 162.034C135.496 162.034 138.801 162.049 138.801 162.049C138.801 162.049 135.962 160.148 135.962 156.618L135.97 137.329C137.905 137.337 136.573 137.34 137.784 137.34L137.78 137.348Z" fill="#E1464A"/>
<path fill-rule="evenodd" clip-rule="evenodd" d="M160.117 145.748C155.996 150.059 152.762 149.384 150.174 152.541C150.174 152.545 150.588 156.822 153.863 158.332C154.982 158.848 159.517 160.488 162.458 155.414L162.436 159.903C162.436 159.903 160.55 162.093 154.561 162.093C147.347 162.093 142.402 156.419 142.402 148.723C142.402 141.156 146.433 134.132 154.038 134.094C161.494 134.052 165.532 140.079 160.117 145.744V145.748ZM155.609 143.983C156.831 141.729 157.787 136.01 153.62 136.322C148.793 136.682 149.711 149.52 149.711 149.52C151.328 147.767 153.749 147.41 155.609 143.98V143.983Z" fill="#E1464A"/>
<path fill-rule="evenodd" clip-rule="evenodd" d="M77.4629 131.991C79.3566 131.991 80.8897 130.488 80.8897 128.636C80.8897 126.784 79.3528 125.281 77.4629 125.281C75.5693 125.281 74.0361 126.784 74.0361 128.636C74.0361 130.488 75.5731 131.991 77.4629 131.991Z" fill="#E1464A"/>
<path fill-rule="evenodd" clip-rule="evenodd" d="M111.153 158.903C109.476 158.903 108.28 157.161 108.28 155.373C108.28 148.433 113.965 147.472 115.483 145.62L115.494 157.324C114.823 157.92 114.14 158.903 111.149 158.903H111.153ZM115.487 142.941C113.775 145.935 100.486 146.569 102.523 156.85C103.328 160.925 106.045 162.113 109.464 162.113C112.781 162.113 114.777 160.383 115.612 158.77C116.109 161.866 117.673 162.045 117.673 162.045C121.513 162.045 125.016 162.06 125.016 162.06C125.016 162.06 122.154 160.159 122.154 156.493V140.865C122.154 137.127 118.01 134.217 113.605 134.217C109.369 134.217 106.709 136.255 106.709 136.255C106.709 137.507 106.709 141.105 106.709 141.105C106.709 141.105 108.22 137.26 112.052 137.26C115.79 137.26 116.067 139.124 116.045 140.053C116.045 140.053 116.42 141.309 115.487 142.941Z" fill="#E1464A"/>
<path fill-rule="evenodd" clip-rule="evenodd" d="M176.38 154.499C176.422 156.465 174.661 159.045 170.923 159.045C167.094 159.045 165.561 155.125 165.561 155.125V160.093C165.561 160.093 168.324 162.062 172.559 162.062C177.583 162.062 182.665 158.245 182.551 152.928C182.513 151.057 181.845 149.463 180.824 148.089C179.124 145.809 176.031 144.219 173.633 142.742C172.267 141.9 171.542 140.393 171.523 139.866C171.481 138.936 171.933 137.054 175.674 137.054C179.325 137.054 180.877 140.898 180.877 140.898L180.862 136.246C180.862 136.246 178.069 134.029 173.834 134.029C169.428 134.029 165.428 136.94 165.504 140.678C165.572 143.961 166.954 146.086 169.64 148.089C170.703 148.879 171.967 149.649 173.432 150.461C175.568 151.645 176.346 153.099 176.373 154.503L176.38 154.499Z" fill="#E1464A"/>
</svg>
