<svg width="183" height="44" viewBox="0 0 183 44" fill="none" xmlns="http://www.w3.org/2000/svg">
<path fill-rule="evenodd" clip-rule="evenodd" d="M74.9179 24.8701L74.2868 25.3652L73.9479 25.5521L73.5493 25.8221L73.1576 26.0728L72.8231 26.2478L72.5166 26.6192L72.002 26.9141L71.1811 26.4984C71.6216 25.9221 72.0857 25.6099 72.5256 25.23C73.0641 24.391 74.4106 22.4804 75.9808 23.7555C75.8492 24.4507 75.6226 24.5331 74.9178 24.8701H74.9179ZM126.175 21.6971C125.508 21.5489 126.004 21.6124 125.361 21.7901C124.864 21.9276 124.699 21.9863 124.346 22.1555C124.654 21.0019 125.481 21.0274 126.239 20.3268C126.403 20.2428 126.41 20.195 126.821 20.1175C127.325 20.0223 126.899 20.1106 127.232 20.1841C127.103 20.9254 126.747 21.1266 126.175 21.6971H126.175ZM136.461 15.2982C136.461 19.6629 139.863 16.7042 132.05 22.7737L129.239 24.7622C128.202 25.4501 126.734 26.4985 125.489 26.4985C124.309 26.4985 123.683 26.2951 123.432 25.3556C124.763 24.7166 127.74 24.5486 130.585 21.5373C132.881 19.1074 131.528 16.4411 129.832 16.4411C127.524 16.4411 124.53 16.6041 122.878 17.716C120.508 19.3112 119.268 19.9034 117.488 22.6116C117.068 23.2498 116.634 24.0653 116.026 24.5788C115.306 25.1869 114.881 25.5717 113.872 25.8527C112.627 26.1991 110.741 26.4752 109.489 25.8127C109.642 23.9718 112.46 22.8557 112.46 21.9269C112.46 19.2277 109.494 17.3554 108.574 17.3554C108.084 17.3554 106.445 18.5399 105.758 18.882L99.0113 22.8784C98.4754 23.2653 98.175 23.4603 97.374 23.5269C98.3022 21.7727 99.3923 21.9643 98.0577 19.6436C97.3961 18.4928 96.1746 17.1267 94.4024 17.1267C93.4751 17.1267 90.8195 21.1361 87.6256 22.6931C86.5334 23.2257 85.6971 23.56 84.5736 23.2983C84.5736 22.5232 84.6807 22.2333 84.773 21.6458L84.8116 20.2536C84.6193 19.8249 83.3798 18.7268 82.7449 18.7268C81.8568 18.7268 81.4257 20.2363 80.2306 20.5554C78.192 16.7028 77.2477 15.8589 73.0721 18.197C66.6487 21.7938 67.0116 24.9866 64.1888 25.7714C55.9327 28.0667 63.0872 23.5502 63.0872 20.784C63.0872 19.3856 61.0549 17.8125 59.6586 17.8125C58.7069 17.8125 57.6408 18.7194 56.8713 19.1396C55.9143 19.662 55.0534 19.9202 54.0164 20.3991C53.061 20.8404 52.304 21.4029 51.4729 21.97C50.7193 22.4841 49.7129 23.4415 48.6869 23.527C48.9453 22.5593 49.7859 22.2179 50.287 21.4698C50.038 20.4011 48.7819 17.8125 47.5441 17.8125C46.1219 17.8125 45.3343 18.6353 44.5046 19.3446C44.0377 19.7437 43.6439 19.9417 43.1655 20.2912C42.6429 20.6727 42.2724 21.0008 41.7652 21.4053C41.0938 21.9407 35.9861 24.1283 34.9722 24.2126C33.8952 22.6042 34.6739 21.3698 34.0099 20.3748C33.4164 19.4853 29.0692 16.9613 28.865 19.6599C28.7053 21.7709 30.8867 21.099 27.7154 24.2702C26.4992 25.4863 25.1454 26.5451 23.46 27.1231C22.3817 27.493 22.4976 27.4797 21.7148 26.9556C22.65 22.9411 30.5819 24.8581 27.3372 19.5045C27.3131 19.4646 26.6371 18.6448 26.6155 18.6261C23.5138 15.9411 14.8574 23.6543 14.8574 27.8698C14.8574 29.0847 15.6371 30.7901 16.2786 31.4774C19.215 34.6227 24.4684 32.6129 27.8509 31.2632C32.0011 29.607 30.834 30.1761 33.1437 26.727C34.6085 26.727 35.0318 26.9556 36.3437 26.9556C38.6984 26.9556 39.6367 25.1509 40.2122 28.1157C40.4454 29.3167 40.8966 30.582 41.5857 31.5425C44.074 35.0106 51.7855 28.4416 53.2584 28.0985C53.5714 28.5658 53.7129 28.621 54.0776 29.1079C54.8089 30.0841 55.7323 32.2129 57.1442 32.2129C61.625 32.2129 62.9236 29.2166 65.373 29.0128C66.2071 30.2584 66.7478 32.7131 68.7403 32.6172C70.8502 32.5159 73.6532 30.5726 71.7786 34.0452C70.6499 36.1358 68.5502 39.1865 68.8421 41.7674C69.2785 45.6259 74.1498 42.2915 75.238 40.935L77.5862 37.7974C78.0277 37.191 78.0579 37.2377 78.406 36.56L82.2295 29.1831C82.4668 28.5908 82.4717 28.4508 82.6558 27.7808C82.8915 26.9236 83.0647 26.4758 83.9332 26.3152C84.9943 26.119 86.1842 26.4102 87.2272 26.1791C91.2662 25.2842 88.532 25.134 90.7442 29.928C91.9556 32.5535 93.4539 32.1622 95.9603 31.485C97.277 31.129 99.2434 30.0564 100.443 29.3391C101.213 28.8788 101.917 28.4765 102.631 28.0984C103.474 29.3573 105.741 31.7557 107.431 31.7557C111.439 31.7557 113.541 29.9014 116.574 27.8698C117.389 29.0866 117.711 29.6174 118.796 30.677C121.199 33.025 124.491 32.1301 127.046 30.5699C127.794 30.1136 128.3 29.8889 129.058 29.3815C131.15 27.9808 136.688 22.5172 138.289 22.384C138.23 25.0445 134.549 28.8723 137.604 31.527C138.174 31.1453 138.298 30.7376 138.934 30.7462C140.828 30.7722 141.209 33.4646 143.461 26.641C143.817 25.5603 144.053 24.8794 144.454 23.9776C147.856 16.3415 148.467 18.7315 150.903 17.1683C151.436 16.8261 151.313 16.8174 152.033 16.4699C153.148 15.9319 153.952 16.1062 154.29 14.8408C152.709 13.1748 148.804 14.1141 148.804 13.0122C148.804 11.6921 150.204 10.9379 149.421 9.67323C148.96 8.9284 147.61 7.75488 146.518 7.75488C143.922 7.75488 144.288 14.2263 140.126 14.3919C138.809 14.4443 136.46 13.8921 136.46 15.2979L136.461 15.2982Z" fill="#AA192D"/>
<path fill-rule="evenodd" clip-rule="evenodd" d="M0 26.4756C0.531187 27.4889 0.553958 28.764 0 29.7762V32.4456C0.762101 32.6821 -0.583205 32.2456 0.414476 32.2392C0.734386 32.2372 1.39468 33.15 3.49206 31.1375C4.73555 29.9443 5.1563 28.9436 5.93978 27.4136L8.36271 23.6648C10.2136 20.8185 12.0162 19.9921 15.7389 18.4693C19.7031 16.8479 18.4689 16.6264 23.5943 13.9816C24.3704 13.5811 24.9562 13.2958 25.6518 12.8389C26.5306 12.2617 26.9433 12.2567 26.9722 10.9592C23.6022 10.9592 19.9441 12.5984 16.8512 13.8671C15.7463 14.3203 14.6803 14.5668 13.4861 14.845C13.4861 11.0371 15.1734 10.8052 17.7758 10.2202C19.2027 9.89954 23.4283 7.11255 27.1083 6.29516C29.0484 5.86425 34.7989 3.58609 35.1197 1.94616C35.4562 0.224745 33.1308 0.252669 31.0508 0.0171584C29.565 -0.151153 23.4466 0.964771 21.939 1.35453C20.5574 1.71162 19.2552 2.14553 17.8297 2.50248C15.0697 3.19362 11.9016 3.31194 9.22578 4.18455C5.07183 5.53919 7.50026 5.699 2.74298 8.21622V10.2734C4.16941 10.3921 6.52222 11.0837 6.9532 12.261C7.76293 14.4727 2.18094 19.697 0.763285 22.6941L0.228616 23.7596L6.96364e-05 26.4755L0 26.4756Z" fill="#AA192D"/>
<path fill-rule="evenodd" clip-rule="evenodd" d="M171.667 18.9601C171.667 22.0482 173.983 23.7602 171.438 23.7602C168.087 23.7602 165.554 21.9582 160.557 23.3938C158.973 23.849 158.048 24.0859 157.495 25.1317C159.338 26.0161 159.065 24.9981 160.192 26.3212C160.902 27.1561 160.809 26.7907 161.25 27.091C162.773 28.1278 160.567 29.5654 164.329 29.9552C166.738 30.2048 173.223 30.5859 175.423 29.8018C176.319 29.4821 177.185 28.9348 177.938 28.4317C182.376 25.4691 176.696 21.7139 176.696 20.7888C176.696 20.1714 176.805 20.1585 176.924 19.6458C178.075 19.3777 180.228 19.2913 181.193 18.8859C182.554 18.3142 182.639 17.1663 182.639 15.3029C181.294 14.9896 181.729 14.6172 179.667 14.6172C178.364 14.6172 171.667 16.2183 171.667 18.9601H171.667Z" fill="#AA192D"/>
<path fill-rule="evenodd" clip-rule="evenodd" d="M165.491 11.6389C166.884 11.6389 167.841 11.4694 168.69 10.9517C171.276 9.37458 171.067 7.06738 169.148 7.06738C168.551 7.06738 168.26 7.62524 167.863 8.06813L167.535 8.42592C166.434 9.68898 165.521 10.3126 165.491 11.6389V11.6389Z" fill="#AA192D"/>
<path fill-rule="evenodd" clip-rule="evenodd" d="M72.5252 25.2359C72.0852 25.6158 71.6212 25.928 71.1807 26.5043C71.7168 26.2447 71.4836 26.449 71.9664 25.9995C72.2912 25.697 72.3046 25.6545 72.5252 25.2359C73.7176 24.5557 74.1703 22.9376 75.8872 23.7614L74.9174 24.876C74.3408 25.0727 74.5862 24.9291 74.2862 25.3711L73.9474 25.558L73.5488 25.828C72.8531 25.8074 73.3137 25.7553 73.157 26.0787L72.8225 26.2537C72.1602 26.3071 72.6221 26.1689 72.516 26.6252C71.7043 26.3942 72.1752 26.3988 72.0014 26.92L72.516 26.6252L72.8225 26.2537L73.157 26.0787L73.5488 25.828L73.9474 25.558L74.2862 25.3711L74.9174 24.876C75.6222 24.539 75.8487 24.4566 75.9804 23.7614C74.4102 22.4863 73.0636 24.3969 72.5252 25.2359Z" fill="#BDBDBD"/>
<path fill-rule="evenodd" clip-rule="evenodd" d="M0 29.7791C0.553958 28.767 0.531186 27.4919 0 26.4785V29.7791Z" fill="#F9E9E9"/>
<path fill-rule="evenodd" clip-rule="evenodd" d="M126.176 21.7012C126.748 21.1307 127.104 20.9295 127.233 20.1882C126.9 20.1148 127.326 20.0264 126.822 20.1216C126.411 20.1991 126.404 20.2469 126.24 20.3309C127.302 20.3309 126.621 20.2717 126.861 20.5595C126.574 20.9886 126.788 20.5995 126.57 20.9446C126.178 21.5652 126.479 20.9565 126.176 21.7012V21.7012Z" fill="#CC7B81"/>
</svg>
