<svg width="183" height="29" viewBox="0 0 183 29" fill="none" xmlns="http://www.w3.org/2000/svg">
<path d="M13.9682 28.2703C6.28571 28.2703 0 21.951 0 14.2275C0 6.50387 6.28571 0.18457 13.9682 0.18457C18.246 0.18457 22.2619 2.11547 24.9682 5.53842L23.6587 6.50387C21.3889 3.51975 17.8095 1.85216 13.9682 1.85216C7.15872 1.85216 1.65873 7.38155 1.65873 14.2275C1.65873 21.0734 7.15872 26.6905 13.9682 26.6905C20.5159 26.6905 25.9286 21.5122 26.2778 15.1051H18.3333V13.4375H27.9365V14.2275C27.9365 22.0388 21.7381 28.2703 13.9682 28.2703Z" fill="#2F2F2F"/>
<path d="M49.2399 28.2613C43.478 28.2613 38.7637 23.5218 38.7637 17.7291V0H40.4224V17.7291C40.4224 22.6441 44.4383 26.5937 49.2399 26.5937C54.0414 26.5937 58.0573 22.5564 58.0573 17.7291V0H59.716V17.7291C59.716 23.6096 55.0018 28.2613 49.2399 28.2613Z" fill="#2F2F2F"/>
<path d="M90.2702 0.270508H71.4131V1.9381H90.2702V0.270508Z" fill="url(#paint0_linear_551_6830)"/>
<path d="M90.2702 12.9043H71.4131V14.5719H90.2702V12.9043Z" fill="url(#paint1_linear_551_6830)"/>
<path d="M90.2702 26.6885H71.4131V28.3561H90.2702V26.6885Z" fill="url(#paint2_linear_551_6830)"/>
<path d="M113.578 28.2685H101.879V26.6009H113.578C116.459 26.6009 118.816 24.1434 118.816 21.0715V20.1938C118.816 17.122 116.459 14.6645 113.578 14.6645H107.903C104.149 14.6645 101.094 11.417 101.094 7.46748C101.094 3.51792 104.149 0.270508 107.903 0.270508H119.602V1.9381H107.903C105.022 1.9381 102.665 4.3956 102.665 7.46748C102.665 10.5394 105.022 12.9969 107.903 12.9969H113.578C117.332 12.9969 120.387 16.2443 120.387 20.1938V21.1593C120.387 25.1089 117.332 28.2685 113.578 28.2685Z" fill="#2F2F2F"/>
<path d="M140.468 1.05664H138.81V28.3525H140.468V1.05664Z" fill="#2F2F2F"/>
<path d="M149.287 0.270508H129.906V1.9381H149.287V0.270508Z" fill="#2F2F2F"/>
<path d="M158.364 28.4459L169.626 3.08091L180.801 28.4459H182.547L170.325 0.711178C170.237 0.447874 169.888 0.18457 169.626 0.18457C169.277 0.18457 169.015 0.360106 168.928 0.711178L156.618 28.4459H158.364Z" fill="#2F2F2F"/>
<defs>
<linearGradient id="paint0_linear_551_6830" x1="80.8814" y1="1.04901" x2="80.8814" y2="27.4049" gradientUnits="userSpaceOnUse">
<stop stop-color="#F37529"/>
<stop offset="1" stop-color="#B3509D"/>
</linearGradient>
<linearGradient id="paint1_linear_551_6830" x1="80.8814" y1="1.0442" x2="80.8814" y2="27.4002" gradientUnits="userSpaceOnUse">
<stop stop-color="#F37529"/>
<stop offset="1" stop-color="#B3509D"/>
</linearGradient>
<linearGradient id="paint2_linear_551_6830" x1="80.8814" y1="1.04882" x2="80.8814" y2="27.4048" gradientUnits="userSpaceOnUse">
<stop stop-color="#F37529"/>
<stop offset="1" stop-color="#B3509D"/>
</linearGradient>
</defs>
</svg>
