<svg width="183" height="65" viewBox="0 0 183 65" fill="none" xmlns="http://www.w3.org/2000/svg">
<path fill-rule="evenodd" clip-rule="evenodd" d="M18.6529 15.3036C18.6529 17.1951 19.3897 19.7939 20.0747 20.9967C22.532 25.3114 27.7554 28.0603 32.1334 30.2552C35.1961 31.7907 38.2923 33.5042 40.987 35.61C47.5594 40.7462 47.2279 49.2794 41.6825 55.2642C38.0233 59.2136 31.1043 62.2942 25.0383 62.2942C17.8176 62.2942 10.9833 61.3754 6.49127 54.8006C4.08362 51.2765 3.93847 46.6116 5.87467 42.826C6.7055 41.2015 8.01286 39.6432 9.39233 38.5242C14.379 34.4789 23.6624 32.3274 29.2027 36.5186C35.7649 41.483 31.2845 51.6145 23.3829 51.6145C17.4624 51.6145 17.4419 49.3069 15.5785 48.0547C15.261 48.268 15.3617 48.1884 15.0666 48.4903C15.0346 48.523 14.9843 48.5801 14.9531 48.6138C14.922 48.6476 14.8709 48.7095 14.8432 48.741C14.8155 48.7724 14.7584 48.8451 14.7364 48.8711C14.7143 48.8973 14.6692 48.9615 14.6324 49.004C15.1809 50.0442 14.9975 49.7989 15.9482 50.5315C18.4141 52.4315 19.1563 53.2759 23.3828 53.2759C33.6554 53.2759 42.424 41.5254 31.9464 35.1891C23.279 29.9476 1.82301 33.127 0.0584983 48.6341C-0.485828 53.4167 2.85102 57.669 6.63495 60.1147C13.7386 64.7061 25.8183 64.8629 33.9396 62.2083C37.4283 61.068 39.4372 60.0055 42.2099 58.1666C50.1053 52.9304 55.1165 41.3317 46.738 32.9241C40.1753 26.3386 24.3289 21.5233 24.3289 14.1169V12.2184C24.3289 8.76428 27.3614 5.59216 29.6903 4.3083C39.9239 -1.33317 54.3641 2.34448 54.3641 10.5571C54.3641 12.8567 54.6372 13.405 52.9451 13.405C52.2241 13.405 51.5317 11.981 50.3436 11.981C45.9851 11.981 45.3742 18.2664 50.575 19.5971C54.5071 20.6032 59.2938 15.6832 57.0033 8.8579C53.1055 -2.7568 28.7149 -3.15833 20.7775 8.89179C19.8699 10.2697 18.653 13.0462 18.653 15.3035L18.6529 15.3036Z" fill="black"/>
<path fill-rule="evenodd" clip-rule="evenodd" d="M90.0755 52.3267L90.1461 52.3974C90.1414 52.3929 90.0519 52.3502 90.0755 52.3267ZM94.1712 64.6677H92.9806C90.9034 64.3132 89.3661 62.0388 89.3661 58.0226C89.3661 55.5063 89.9191 54.6884 90.0755 52.8014C89.4622 53.2524 88.1793 55.4184 87.6173 56.2678C86.1044 58.5544 82.1562 63.849 78.5972 64.6677H76.863C76.0032 64.4416 75.1997 63.8409 74.5009 62.7348C73.122 60.5526 73.2842 58.7974 73.2842 56.3614C73.2842 48.816 83.5884 34.5273 91.258 34.5273C93.4268 34.5273 94.7574 35.6874 94.8055 37.85H95.2784C96.112 34.2592 96.5032 35.002 101.664 35.002C101.635 36.3066 94.4538 54.3899 93.6505 56.6265C93.2019 57.8755 92.7336 58.9323 92.2516 60.227C91.0782 63.3782 95.0119 65.4754 98.4304 59.2872C99.6115 57.149 100.228 54.6355 101.191 53.9883C101.972 54.5134 101.949 54.522 101.601 55.5515C100.932 57.5272 100.57 58.7046 99.3977 60.4954C97.7351 63.036 95.8526 64.4013 94.171 64.668L94.1712 64.6677ZM78.2507 63.2437C73.2979 63.2437 85.2281 43.4426 86.7184 41.126C87.6216 39.7219 89.5955 35.9512 91.4946 35.9512C93.3145 35.9512 93.3865 37.9335 93.3865 39.2738C93.3865 44.3382 87.5239 54.5725 83.746 58.7904C82.6645 59.998 80.1526 63.2437 78.2508 63.2437L78.2507 63.2437Z" fill="black"/>
<path fill-rule="evenodd" clip-rule="evenodd" d="M155.6 64.677H154.158C153.521 64.5485 152.899 64.2349 152.315 63.6814C150.806 62.2509 150.668 60.6767 150.301 58.1018C149.154 50.0447 159.021 42.6323 157.472 35.9605C155.839 35.9971 154.89 37.3587 154.156 38.3289C148.266 46.1114 145.671 53.7217 141.466 62.1427C141.12 62.8362 140.975 63.3493 140.681 63.9651H135.241C135.575 62.5263 136.664 60.4013 137.269 58.8797C137.965 57.1258 138.597 55.6743 139.261 53.997C140.601 50.6132 141.975 47.6074 143.193 43.9402C143.779 42.1733 146.203 36.8151 144.35 36.0505C143.463 35.6847 142.703 36.644 142.272 37.0824C138.62 40.7973 138.224 45.1262 137.133 45.9283C135.503 45.4916 136.511 44.0053 136.922 42.8685C137.866 40.2592 140.327 35.8767 142.653 34.8539C143.929 34.293 145.435 34.4986 146.469 35.1362C149.854 37.2244 147.346 44.2106 147.303 46.1656L148.825 43.6586C149.369 42.7561 149.652 42.144 150.234 41.2751C151.979 38.6701 155.085 32.9827 158.708 34.9567C162.552 37.0506 161.183 43.6217 160.008 46.5748C158.51 50.3397 156.52 53.336 154.708 56.9197C153.341 59.6232 153.916 61.1776 154.397 63.2532C157.088 63.2532 158.386 61.8883 159.678 59.5342C161.225 56.717 161.152 56.0912 161.721 54.9216C162.528 53.2641 162.662 54.229 162.675 54.2348C163.277 54.4785 163.329 54.3453 163.082 55.5397C162.571 58.0034 160.147 62.2189 157.906 63.6891C157.174 64.1697 156.39 64.5322 155.6 64.6772L155.6 64.677Z" fill="black"/>
<path fill-rule="evenodd" clip-rule="evenodd" d="M102.142 55.6514C102.142 59.9936 104.186 64.1435 106.981 64.6697H108.181C110.249 64.2935 112.592 61.9435 114.78 56.4675C115.263 55.2576 116.369 53.4392 114.44 53.2781C113.901 55.5965 110.321 62.7043 108.193 63.1501C105.87 63.6366 105.689 60.2655 105.689 58.7366C105.689 56.4707 106.793 52.9003 107.428 50.9883C109.638 44.3357 115.571 31.0051 119.594 24.9881C122.476 20.6797 127.113 14.6237 132.543 14.0035C133.619 13.8806 135.724 14.3765 135.724 15.5432C135.724 16.8931 134.069 16.0198 134.069 18.1538C134.069 19.704 135.805 20.7167 137.243 20.399C140.971 19.5749 141.127 12.6953 132.65 12.6953C126.545 12.6953 121.622 16.4504 117.806 20.5834C117.074 21.3771 116.4 22.3326 115.723 23.2391C114.355 25.0699 113.204 26.8944 112.084 28.8435C111.816 29.3112 111.612 29.7872 111.368 30.2603C108.233 36.3364 105.825 41.2932 103.767 48.0267C103.237 49.7624 102.142 53.5102 102.142 55.6514H102.142Z" fill="black"/>
<path fill-rule="evenodd" clip-rule="evenodd" d="M51.9993 55.4122C51.9993 57.9544 52.8353 60.2609 54.068 61.6426C55.698 63.4693 57.5898 64.4559 59.5077 64.668H61.094C63.4492 64.4092 65.7454 63.0036 67.5435 60.5688C68.2229 59.6489 71.4023 54.6445 71.5482 53.6218C71.632 53.0343 71.804 53.1924 71.272 52.9001C70.4282 52.4364 70.4643 53.0712 70.3801 53.1685C70.3331 53.2228 69.4415 54.829 69.342 55.0164C67.3086 58.8478 65.0174 63.0066 60.2765 63.0066C54.5464 63.0066 57.7154 54.6582 58.6547 52.1233C59.0365 51.0931 59.4827 50.0515 59.937 48.901C60.4315 47.649 60.8091 47.039 61.3218 45.7814C61.7673 44.6888 62.3439 43.8033 62.8898 42.8456C64.0796 40.7583 67.3102 36.1886 69.7364 36.1886C71.2185 36.1886 73.0474 36.2688 73.0474 38.5619C73.0474 42.1538 67.8444 39.3645 67.8444 44.0205C67.8444 47.2894 74.9393 48.4009 74.9393 39.2739C74.9393 36.6841 72.5749 34.5273 69.4998 34.5273C67.1456 34.5273 64.2061 36.1703 62.7391 37.236C61.7653 37.9434 61.024 38.5757 60.1096 39.3438C56.658 42.2437 51.999 49.5247 51.999 55.4121L51.9993 55.4122Z" fill="black"/>
<path fill-rule="evenodd" clip-rule="evenodd" d="M165.996 44.0169C165.996 44.549 166.183 44.5379 166.469 44.9662C167.492 44.6921 168.601 41.9226 169.764 39.9663C171.018 37.8581 172.42 35.9478 174.746 35.9478C174.746 43.2344 167.415 48.8833 167.415 55.6459C167.415 57.9249 167.427 60.0488 168.356 62.0589C169.101 63.6706 170.199 64.4796 171.419 64.6643H172.562C174.334 64.4131 176.203 63.053 177.543 61.0623C178.354 59.8564 180.186 56.5102 180.186 54.6966C180.186 53.7892 180.258 54.6102 179.949 53.9845C178.686 54.323 178.744 55.203 178.296 56.3601C175.817 62.7694 170.962 65.924 170.962 60.6297C170.962 57.5686 172.369 56.0054 173.944 53.6539C176.09 50.4497 178.294 45.4289 178.294 40.9316C178.294 34.0918 173.312 32.1092 169.067 38.0796C168.405 39.0105 165.996 42.737 165.996 44.0168L165.996 44.0169Z" fill="black"/>
<path fill-rule="evenodd" clip-rule="evenodd" d="M118.456 44.4964C118.944 44.7553 119.017 44.8256 119.639 44.971C120.84 42.6931 123.835 35.9526 126.734 35.9526C129.771 35.9526 122.828 47.044 121.225 50.8345C119.795 54.2151 119.327 58.2535 120.745 61.6602C121.526 63.536 122.743 64.4708 124.093 64.6691H125.234C126.28 64.5249 127.352 64.0002 128.324 63.1797C130.29 61.5193 131.846 58.139 132.643 55.6159C132.966 54.5917 132.925 54.7613 132.409 53.9894C131.355 54.5493 131.864 53.786 130.822 56.4309C130.384 57.5427 130.066 58.3705 129.475 59.3516C125.58 65.8233 121.947 63.638 124.03 57.6846C125.511 53.4553 130.754 50.7308 130.754 39.9872C130.754 35.7309 126.799 31.034 121.493 38.2887C120.576 39.543 118.607 42.6763 118.456 44.4964H118.456Z" fill="black"/>
<path fill-rule="evenodd" clip-rule="evenodd" d="M129.096 27.8856C129.096 33.0846 135.245 29.8508 135.245 24.8004C135.245 23.734 133.687 19.7847 130.512 24.3229C129.948 25.1295 129.096 26.5331 129.096 27.8856H129.096Z" fill="black"/>
<path fill-rule="evenodd" clip-rule="evenodd" d="M178.057 30.4959C180.847 30.4959 182.392 27.7006 182.551 25.3531V24.5807C182.455 23.2333 181.835 22.1895 180.659 22.1895C178.59 22.1895 176.216 26.6014 176.521 28.469C176.665 29.3536 177.22 30.4959 178.057 30.4959H178.057Z" fill="black"/>
</svg>
