<svg width="49" height="32" viewBox="0 0 49 32" fill="none" xmlns="http://www.w3.org/2000/svg">
<path d="M48.1703 31.6454H1.69231C1.47219 31.6454 1.26109 31.5577 1.10543 31.4015C0.949784 31.2453 0.86233 31.0335 0.862305 30.8126L0.862305 0.832812C0.86233 0.611944 0.949784 0.40013 1.10543 0.243953C1.26109 0.0877754 1.47219 2.50148e-05 1.69231 0H48.1704C48.3905 2.50148e-05 48.6016 0.0877754 48.7573 0.243953C48.9129 0.40013 49.0004 0.611944 49.0004 0.832812V30.8126C49.0004 31.0335 48.9129 31.2453 48.7572 31.4015C48.6016 31.5577 48.3904 31.6454 48.1703 31.6454Z" fill="#41479B"/>
<path d="M49.0003 0.832812C49.0003 0.611944 48.9128 0.40013 48.7572 0.243953C48.6015 0.0877754 48.3904 2.50148e-05 48.1703 0H44.457L29.0811 10.108V0H20.7814V10.108L5.40552 0H1.69231C1.47219 2.50148e-05 1.26109 0.0877754 1.10543 0.243953C0.949784 0.40013 0.86233 0.611944 0.862305 0.832812L0.862305 2.98663L14.0541 11.6588H0.862305V19.9865H14.0541L0.862305 28.6588V30.8126C0.86233 31.0335 0.949784 31.2453 1.10543 31.4015C1.26109 31.5577 1.47219 31.6454 1.69231 31.6454H5.40561L20.7816 21.5375V31.6454H29.0812V21.5375L44.4572 31.6454H48.1705C48.3906 31.6454 48.6017 31.5577 48.7574 31.4015C48.913 31.2453 49.0005 31.0335 49.0005 30.8126V28.6588L35.8087 19.9866H49.0003V11.6589H35.8085L49.0003 2.98663V0.832812Z" fill="#F5F5F5"/>
<path d="M49.0003 13.3244H27.4212V0H22.4414V13.3244H0.862305V18.321H22.4414V31.6454H27.4212V18.321H49.0003V13.3244Z" fill="#FF4B55"/>
<path d="M17.6869 19.9865L0.88581 30.9293C0.944572 31.3315 1.27505 31.6454 1.69222 31.6454H2.8354L20.7358 19.9865H17.6869V19.9865ZM33.4296 19.9865H30.3807L48.255 31.6281C48.6716 31.5836 49.0004 31.2422 49.0004 30.8124V30.1277L33.4296 19.9865ZM0.862305 1.75204L16.0727 11.6588H19.1216L1.34585 0.0811304C1.06191 0.213486 0.862305 0.497913 0.862305 0.832717V1.75204ZM32.13 11.6588L48.9715 0.689513C48.9015 0.300654 48.5781 0 48.1703 0H46.9813L29.0812 11.6588H32.13Z" fill="#FF4B55"/>
</svg>
