<svg width="37" height="46" viewBox="0 0 37 46" fill="none" xmlns="http://www.w3.org/2000/svg">
<mask id="mask0_5_110" style="mask-type:luminance" maskUnits="userSpaceOnUse" x="6" y="0" width="17" height="36">
<path d="M21.2301 35.0247L19.9288 35.2152C19.4915 35.2714 19.0693 35.3207 18.5942 35.3563C17.6865 35.4676 16.7363 35.4825 15.7999 35.3207L14.3931 35.0132C13.9329 34.8663 13.4773 34.6896 13.0321 34.4842L11.7285 33.7739C11.3062 33.5076 10.9092 33.199 10.5282 32.8708C9.00426 31.5465 7.8246 29.7472 7.25542 27.7333C6.97887 26.7211 6.82395 25.6585 6.84461 24.6143C6.85264 23.5654 7.00526 22.5418 7.24051 21.5699C7.73968 19.6271 8.53148 17.8955 9.39786 16.3073L10.7095 13.9973L12.0165 11.7895C13.7596 8.86096 15.5085 5.88771 17.3078 2.9638L18.6079 0.856934L19.5799 2.74692C19.8266 3.22544 20.0906 3.69134 20.3224 4.18248L21.0269 5.64673C21.2645 6.13443 21.4699 6.64164 21.696 7.13737L22.0127 7.89819C22.116 8.15294 22.2192 8.40539 22.3122 8.66933L22.116 8.81047L20.2317 6.21361C19.604 5.34722 18.9752 4.48084 18.3555 3.60986L18.6757 3.58003C17.2321 6.73229 15.6795 9.83177 14.027 12.8842L11.5139 17.425C10.7152 18.9489 9.97622 20.5107 9.54131 22.1597C9.1041 23.8041 9.01344 25.5415 9.42426 27.1882C9.82934 28.8314 10.6716 30.3691 11.849 31.5936C12.4331 32.2098 13.1021 32.7445 13.8216 33.1967C14.5457 33.6396 15.3214 34.0057 16.1316 34.273C16.9417 34.5439 17.784 34.7103 18.6343 34.7871L21.2151 34.7837L21.2301 35.0247Z" fill="white"/>
</mask>
<g mask="url(#mask0_5_110)">
<path d="M-1.46387 -0.616699H38.2487V46.5422H-1.46387V-0.616699Z" fill="#3F71C9"/>
</g>
<mask id="mask1_5_110" style="mask-type:luminance" maskUnits="userSpaceOnUse" x="0" y="7" width="35" height="34">
<path d="M34.316 19.0145L33.4966 17.5502C33.1834 17.0866 32.8804 16.6219 32.566 16.1709L31.5447 14.8788L30.7139 13.9779C30.6209 13.8781 30.5142 13.7932 30.4178 13.7014L29.1968 12.648L28.5657 12.158C28.3454 12.0088 28.117 11.8699 27.8967 11.7265C27.0131 11.139 26.0446 10.7075 25.076 10.3265C23.1184 9.58635 21.0287 9.27881 18.9505 9.32012C17.9109 9.33733 16.8723 9.44291 15.8453 9.607C14.832 9.76881 13.8635 10.0385 12.9157 10.3965C11.9701 10.7614 11.0601 11.2158 10.2006 11.7437C9.33766 12.267 8.51258 12.8568 7.75292 13.5201C6.23244 14.8375 4.95868 16.4291 4.05672 18.1779C3.15017 19.9187 2.5569 21.7995 2.4605 23.7079C2.35722 25.6162 2.72214 27.5211 3.47033 29.2998C4.19557 31.0842 5.29261 32.7596 6.70178 34.1366L7.23882 34.6438C7.32948 34.7265 7.4144 34.8171 7.50849 34.8963L7.79997 35.1258L8.37717 35.5871C8.56881 35.742 8.7857 35.8625 8.98537 36.0037L9.60159 36.4087L10.2477 36.761C10.6699 37.0135 11.1221 37.1982 11.565 37.4059L12.2467 37.6733L12.9363 37.9166C13.1681 37.9958 13.4057 38.0371 13.6409 38.1025L14.3512 38.2723L15.0696 38.3779C15.3106 38.4135 15.5481 38.4571 15.8006 38.4628L16.5487 38.5076C16.7989 38.5248 17.0456 38.5041 17.2923 38.5041L18.7658 38.4077C19.0091 38.3813 19.2466 38.3251 19.4876 38.2873L19.8479 38.2253C19.9684 38.2023 20.0831 38.1668 20.2002 38.1404C21.1549 37.9407 22.058 37.5792 22.9187 37.1363L23.5521 36.7817L24.1626 36.3823C24.5447 36.0828 24.9406 35.7925 25.2872 35.4483L25.5569 35.1992L25.807 34.9261C25.9677 34.7414 26.1536 34.5738 26.297 34.3719L26.7606 33.7878L27.1864 33.1704C27.7268 32.3258 28.1721 31.4101 28.5186 30.4439C28.8652 29.4788 29.0706 28.4575 29.2118 27.4236C29.4906 25.3488 29.3001 23.188 28.7126 21.1099C28.4395 20.0622 28.0114 19.0523 27.5272 18.0666L27.1485 17.3299C27.0131 17.0889 26.8639 16.8571 26.7193 16.6161L26.5024 16.2581L26.2614 15.915L25.7772 15.2288L25.9596 15.0578C27.4824 16.7343 28.7298 18.6771 29.5078 20.8138C29.9014 21.8764 30.2032 22.9769 30.3616 24.1038C30.5268 25.2249 30.606 26.3667 30.5234 27.5005C30.4499 28.6331 30.2767 29.7634 29.9599 30.8581C29.6398 31.9494 29.2003 33.0063 28.6449 34.0012C28.0906 34.9961 27.386 35.9061 26.5965 36.7278L25.3285 37.8787L24.6331 38.3779C24.407 38.5512 24.1488 38.6774 23.9079 38.8323C22.921 39.4027 21.8676 39.872 20.7613 40.16L20.4882 40.2415L19.9305 40.362C19.6517 40.4148 19.3728 40.4848 19.0905 40.5238L17.391 40.6844C16.2527 40.7613 15.1143 40.6581 13.984 40.5054L13.1475 40.3321C12.8709 40.2656 12.5863 40.2208 12.3132 40.1394L11.5008 39.8777C11.2276 39.7928 10.9545 39.7079 10.6963 39.5874C6.46998 37.8879 2.91493 34.4981 1.16838 30.2591C0.291669 28.1396 -0.119148 25.8274 0.0300314 23.5438C0.179211 21.2602 0.889532 19.0294 1.99346 17.0396C3.09738 15.0429 4.59721 13.2768 6.35522 11.8355C8.11324 10.3942 10.1272 9.25242 12.2845 8.52718C13.3643 8.16915 14.4797 7.91095 15.6066 7.78128C16.7346 7.65276 17.8696 7.57587 19.0033 7.62866C21.2685 7.71472 23.5349 8.18062 25.6097 9.11471C27.6798 10.0568 29.5434 11.4362 31.0524 13.1322C32.566 14.826 33.7261 16.8158 34.5478 18.9238L34.316 19.0145Z" fill="white"/>
</mask>
<g mask="url(#mask1_5_110)">
<path d="M-1.7373 -0.23584H37.9753V46.9231H-1.7373V-0.23584Z" fill="#3F71C9"/>
</g>
<mask id="mask2_5_110" style="mask-type:luminance" maskUnits="userSpaceOnUse" x="12" y="29" width="25" height="17">
<path d="M36.7797 30.0231C36.1451 32.6968 34.9631 35.2099 33.3543 37.3787L33.2074 37.5841L33.0456 37.7781L32.7197 38.1659C32.5005 38.4207 32.2951 38.6881 32.0622 38.9313L30.9973 40.0031L30.6151 40.3313L29.852 40.9831C29.5938 41.1977 29.3127 41.379 29.0453 41.5764L28.6368 41.8667C28.5025 41.9666 28.3671 42.0607 28.2202 42.1421L27.363 42.6528C25.0657 43.992 22.4769 44.7665 19.8823 45.0362L19.1513 45.1131L18.9069 45.1188L17.4426 45.1429L16.9549 45.1223C16.629 45.1074 16.3066 45.0775 15.9841 45.0454C14.6954 44.91 13.424 44.6437 12.1973 44.2501C13.4504 44.5439 14.7276 44.7046 16.0048 44.7344L16.9607 44.731L17.4369 44.7137L19.0951 44.5497L19.7962 44.4177C22.2795 43.9541 24.6663 43.0177 26.7089 41.5936L27.4686 41.0531C27.5983 40.9682 27.7188 40.8684 27.8358 40.7662L28.1916 40.4667C28.4234 40.2636 28.6701 40.0766 28.8927 39.8585L29.8727 38.8763L30.7655 37.8194C30.956 37.5784 31.1235 37.3202 31.3025 37.0735L31.7019 36.5135L31.8189 36.3161C33.111 34.2414 33.9671 31.9257 34.3343 29.5537L36.7797 30.0231Z" fill="white"/>
</mask>
<g mask="url(#mask2_5_110)">
<path d="M-1.46289 -0.625H38.2497V46.5339H-1.46289V-0.625Z" fill="#3F71C9"/>
</g>
</svg>
