<svg width="21" height="23" viewBox="0 0 21 23" fill="none" xmlns="http://www.w3.org/2000/svg">
<path d="M20.6807 20.9494L15.5038 15.2561C16.8349 13.5829 17.5642 11.4778 17.5642 9.28624C17.5642 4.16589 13.6245 0 8.7821 0C3.93973 0 0 4.16589 0 9.28624C0 14.4066 3.93973 18.5725 8.7821 18.5725C10.6 18.5725 12.3324 17.9927 13.8135 16.8921L19.0297 22.6286C19.2477 22.868 19.5409 23 19.8552 23C20.1526 23 20.4348 22.8801 20.649 22.6621C21.1042 22.199 21.1187 21.431 20.6807 20.9494ZM8.7821 2.4225C12.3614 2.4225 15.2732 5.50149 15.2732 9.28624C15.2732 13.071 12.3614 16.15 8.7821 16.15C5.20282 16.15 2.29098 13.071 2.29098 9.28624C2.29098 5.50149 5.20282 2.4225 8.7821 2.4225Z" fill="#2F2F2F" fill-opacity="0.5"/>
</svg>
