<svg width="70" height="70" viewBox="0 0 70 70" fill="none" xmlns="http://www.w3.org/2000/svg">
<path d="M35.0001 0C15.6694 0 0 15.6708 0 35.0001C0 54.3295 15.6694 70.0003 35.0001 70.0003C54.3309 70.0003 70.0003 54.3295 70.0003 35.0001C70.0003 15.6708 54.3295 0 35.0001 0Z" fill="#57B236"/>
<path d="M3.93621e-05 35.0002C-0.00865769 40.7868 1.42398 46.4844 4.16861 51.5787C7.66436 52.6051 11.2892 53.1249 14.9325 53.1223C35.9736 53.1223 53.0307 36.0652 53.0307 15.0241C53.0326 11.3253 52.4961 7.64585 51.4379 4.1016C46.3796 1.40269 40.7334 -0.00616101 35.0002 2.02525e-05C15.6694 2.02525e-05 3.93621e-05 15.6708 3.93621e-05 35.0002Z" fill="#6FBA47"/>
<path d="M54.9607 29.2056L33.9223 51.298C33.3493 51.8995 32.6608 52.3791 31.898 52.708C31.1351 53.0369 30.3137 53.2084 29.483 53.2121H29.4543C28.6282 53.2123 27.8106 53.0465 27.0498 52.7245C26.2891 52.4025 25.6009 51.9309 25.026 51.3377L13.8628 39.8368C13.2861 39.2579 12.83 38.5701 12.5212 37.8135C12.2123 37.0568 12.0568 36.2464 12.0637 35.4292C12.0706 34.612 12.2397 33.8043 12.5613 33.0529C12.8828 32.3016 13.3504 31.6216 13.9368 31.0525C14.5233 30.4833 15.217 30.0363 15.9776 29.7373C16.7382 29.4384 17.5506 29.2935 18.3677 29.3111C19.1847 29.3287 19.9901 29.5083 20.7372 29.8397C21.4843 30.171 22.1581 30.6475 22.7195 31.2413L29.4106 38.1347L46.0206 20.6934C46.5795 20.1064 47.2486 19.6352 47.9896 19.3068C48.7306 18.9783 49.529 18.7991 50.3393 18.7792C51.1496 18.7593 51.9559 18.8993 52.7121 19.191C53.4683 19.4827 54.1597 19.9205 54.7467 20.4795C55.3337 21.0384 55.8049 21.7074 56.1333 22.4484C56.4618 23.1895 56.641 23.9879 56.6609 24.7982C56.6808 25.6085 56.5408 26.4148 56.2491 27.171C55.9574 27.9272 55.5196 28.6185 54.9607 29.2056Z" fill="white"/>
</svg>
